G04 DesignSpark PCB Gerber Version 12.0 Build 5942*
%FSLAX34Y34*%
%MOIN*%
%ADD19R,0.07874X0.07874*%
%ADD17C,0.00394*%
%ADD10C,0.00500*%
%ADD11C,0.01000*%
%ADD14C,0.02000*%
%ADD13C,0.03000*%
%ADD12C,0.04000*%
%ADD71O,0.12000X0.06000*%
%ADD15O,0.11811X0.11811*%
%ADD21C,0.07400*%
%ADD20C,0.07874*%
%ADD18C,0.08000*%
%ADD16C,0.15748*%
%ADD70R,0.12000X0.06000*%
X0Y0D02*
D02*
D10*
X525Y275D02*
X19400D01*
Y9775D01*
X525D01*
Y275D01*
X969Y9331D02*
Y3042D01*
X1102Y3175D01*
G75*
G02*
X1387Y3331I404J-400D01*
G01*
G75*
G02*
X2073Y4752I910J437D01*
G01*
G75*
G02*
X2297Y6746I223J984D01*
G01*
G75*
G02*
X3131Y6304I0J-1009D01*
G01*
Y7176D01*
G75*
G02*
X1069Y8025I-856J849D01*
G01*
G75*
G02*
X3166Y8837I1206J0D01*
G01*
G75*
G02*
X3285Y9019I484J-188D01*
G01*
X3598Y9331D01*
X969D01*
G36*
X969Y9331D02*
Y3042D01*
X1102Y3175D01*
G75*
G02*
X1387Y3331I404J-400D01*
G01*
G75*
G02*
X2073Y4752I910J437D01*
G01*
G75*
G02*
X2297Y6746I223J984D01*
G01*
G75*
G02*
X3131Y6304I0J-1009D01*
G01*
Y7176D01*
G75*
G02*
X1069Y8025I-856J849D01*
G01*
G75*
G02*
X3166Y8837I1206J0D01*
G01*
G75*
G02*
X3285Y9019I484J-188D01*
G01*
X3598Y9331D01*
X969D01*
G37*
X2520Y4752D02*
G75*
G02*
X3131Y4336I-223J-984D01*
G01*
Y5169D01*
G75*
G02*
X2520Y4752I-835J567D01*
G01*
G36*
X2520Y4752D02*
G75*
G02*
X3131Y4336I-223J-984D01*
G01*
Y5169D01*
G75*
G02*
X2520Y4752I-835J567D01*
G01*
G37*
X2848Y1344D02*
X16664D01*
X16831Y1511D01*
Y2206D01*
X16497D01*
G75*
G02*
X16615Y1885I-377J-321D01*
G01*
G75*
G02*
X15625I-495J0D01*
G01*
G75*
G02*
X15743Y2206I495J0D01*
G01*
X15525D01*
G75*
G02*
X15121Y2375I0J569D01*
G01*
X14757Y2738D01*
G75*
G02*
X13578Y2971I-482J662D01*
G01*
G75*
G02*
X12846Y3703I-303J429D01*
G01*
G75*
G02*
X12642Y3881I429J697D01*
G01*
X12490D01*
X12419Y3810D01*
Y3150D01*
G75*
G02*
X12265Y2781I-519J0D01*
G01*
X11894Y2410D01*
G75*
G02*
X11525Y2256I-369J365D01*
G01*
X11462D01*
Y1963D01*
X9838D01*
Y2285D01*
G75*
G02*
X9218Y2476I-188J490D01*
G01*
G75*
G02*
X7945Y2331I-693J424D01*
G01*
X7730D01*
G75*
G02*
X6589Y2313I-580J569D01*
G01*
X5639D01*
G75*
G02*
X5625Y2302I-439J569D01*
G01*
Y1669D01*
X4175D01*
Y2206D01*
X2885D01*
G75*
G02*
X2848Y1344I-589J-407D01*
G01*
G36*
X2848Y1344D02*
X16664D01*
X16831Y1511D01*
Y2206D01*
X16497D01*
G75*
G02*
X16615Y1885I-377J-321D01*
G01*
G75*
G02*
X15625I-495J0D01*
G01*
G75*
G02*
X15743Y2206I495J0D01*
G01*
X15525D01*
G75*
G02*
X15121Y2375I0J569D01*
G01*
X14757Y2738D01*
G75*
G02*
X13578Y2971I-482J662D01*
G01*
G75*
G02*
X12846Y3703I-303J429D01*
G01*
G75*
G02*
X12642Y3881I429J697D01*
G01*
X12490D01*
X12419Y3810D01*
Y3150D01*
G75*
G02*
X12265Y2781I-519J0D01*
G01*
X11894Y2410D01*
G75*
G02*
X11525Y2256I-369J365D01*
G01*
X11462D01*
Y1963D01*
X9838D01*
Y2285D01*
G75*
G02*
X9218Y2476I-188J490D01*
G01*
G75*
G02*
X7945Y2331I-693J424D01*
G01*
X7730D01*
G75*
G02*
X6589Y2313I-580J569D01*
G01*
X5639D01*
G75*
G02*
X5625Y2302I-439J569D01*
G01*
Y1669D01*
X4175D01*
Y2206D01*
X2885D01*
G75*
G02*
X2848Y1344I-589J-407D01*
G01*
G37*
X4169Y8435D02*
Y5031D01*
G75*
G02*
X4381Y5141I431J-575D01*
G01*
Y8150D01*
G75*
G02*
X4535Y8519I519J0D01*
G01*
X4648Y8631D01*
X4365D01*
X4169Y8435D01*
G36*
X4169Y8435D02*
Y5031D01*
G75*
G02*
X4381Y5141I431J-575D01*
G01*
Y8150D01*
G75*
G02*
X4535Y8519I519J0D01*
G01*
X4648Y8631D01*
X4365D01*
X4169Y8435D01*
G37*
X5419Y7935D02*
Y5141D01*
G75*
G02*
X5867Y4187I-219J-685D01*
G01*
X6579D01*
X6631Y4240D01*
Y7275D01*
G75*
G02*
X6371Y8131I519J625D01*
G01*
X5615D01*
X5419Y7935D01*
G36*
X5419Y7935D02*
Y5141D01*
G75*
G02*
X5867Y4187I-219J-685D01*
G01*
X6579D01*
X6631Y4240D01*
Y7275D01*
G75*
G02*
X6371Y8131I519J625D01*
G01*
X5615D01*
X5419Y7935D01*
G37*
X7494Y3636D02*
G75*
G02*
X7730Y3469I-344J-736D01*
G01*
X7945D01*
G75*
G02*
X9294Y3161I580J-569D01*
G01*
G75*
G02*
X9838Y3265I356J-386D01*
G01*
Y3587D01*
X11381D01*
Y4025D01*
G75*
G02*
X11535Y4394I519J0D01*
G01*
X11906Y4765D01*
G75*
G02*
X12275Y4919I369J-365D01*
G01*
X12613D01*
G75*
G02*
Y5881I662J481D01*
G01*
X7669D01*
Y4025D01*
G75*
G02*
X7515Y3656I-519J0D01*
G01*
X7494Y3636D01*
G36*
X7494Y3636D02*
G75*
G02*
X7730Y3469I-344J-736D01*
G01*
X7945D01*
G75*
G02*
X9294Y3161I580J-569D01*
G01*
G75*
G02*
X9838Y3265I356J-386D01*
G01*
Y3587D01*
X11381D01*
Y4025D01*
G75*
G02*
X11535Y4394I519J0D01*
G01*
X11906Y4765D01*
G75*
G02*
X12275Y4919I369J-365D01*
G01*
X12613D01*
G75*
G02*
Y5881I662J481D01*
G01*
X7669D01*
Y4025D01*
G75*
G02*
X7515Y3656I-519J0D01*
G01*
X7494Y3636D01*
G37*
X7669Y7275D02*
Y6919D01*
X12613D01*
G75*
G02*
X12756Y8033I662J481D01*
G01*
Y8131D01*
X9304D01*
G75*
G02*
X7838Y7467I-779J-231D01*
G01*
G75*
G02*
X7669Y7275I-688J433D01*
G01*
G36*
X7669Y7275D02*
Y6919D01*
X12613D01*
G75*
G02*
X12756Y8033I662J481D01*
G01*
Y8131D01*
X9304D01*
G75*
G02*
X7838Y7467I-779J-231D01*
G01*
G75*
G02*
X7669Y7275I-688J433D01*
G01*
G37*
X14452Y9331D02*
X14640Y9144D01*
G75*
G02*
X14794Y8775I-365J-369D01*
G01*
Y8033D01*
G75*
G02*
X14937Y6919I-519J-633D01*
G01*
X16018D01*
G75*
G02*
X16392Y6767I7J-519D01*
G01*
X16480Y6679D01*
G75*
G02*
X16639Y6305I-360J-374D01*
G01*
Y4259D01*
G75*
G02*
X16840Y3344I-519J-594D01*
G01*
X17150D01*
G75*
G02*
X17554Y3175I0J-569D01*
G01*
X17800Y2929D01*
G75*
G02*
X17969Y2525I-400J-404D01*
G01*
Y1275D01*
G75*
G02*
X17800Y871I-569J0D01*
G01*
X17648Y719D01*
X18956D01*
Y1474D01*
G75*
G02*
X18185Y1885I-276J411D01*
G01*
G75*
G02*
X18956Y2296I495J0D01*
G01*
Y2926D01*
G75*
G02*
X17891Y3665I-276J739D01*
G01*
G75*
G02*
X18956Y4404I789J0D01*
G01*
Y5380D01*
X18630D01*
G75*
G02*
X18505Y5505I0J125D01*
G01*
Y7667D01*
G75*
G02*
X16194Y8150I-1105J483D01*
G01*
G75*
G02*
X17157Y9331I1206J0D01*
G01*
X14452D01*
G36*
X14452Y9331D02*
X14640Y9144D01*
G75*
G02*
X14794Y8775I-365J-369D01*
G01*
Y8033D01*
G75*
G02*
X14937Y6919I-519J-633D01*
G01*
X16018D01*
G75*
G02*
X16392Y6767I7J-519D01*
G01*
X16480Y6679D01*
G75*
G02*
X16639Y6305I-360J-374D01*
G01*
Y4259D01*
G75*
G02*
X16840Y3344I-519J-594D01*
G01*
X17150D01*
G75*
G02*
X17554Y3175I0J-569D01*
G01*
X17800Y2929D01*
G75*
G02*
X17969Y2525I-400J-404D01*
G01*
Y1275D01*
G75*
G02*
X17800Y871I-569J0D01*
G01*
X17648Y719D01*
X18956D01*
Y1474D01*
G75*
G02*
X18185Y1885I-276J411D01*
G01*
G75*
G02*
X18956Y2296I495J0D01*
G01*
Y2926D01*
G75*
G02*
X17891Y3665I-276J739D01*
G01*
G75*
G02*
X18956Y4404I789J0D01*
G01*
Y5380D01*
X18630D01*
G75*
G02*
X18505Y5505I0J125D01*
G01*
Y7667D01*
G75*
G02*
X16194Y8150I-1105J483D01*
G01*
G75*
G02*
X17157Y9331I1206J0D01*
G01*
X14452D01*
G37*
X14923Y4900D02*
G75*
G02*
X14968Y3965I-648J-500D01*
G01*
G75*
G02*
X15304Y3800I-68J-565D01*
G01*
X15338Y3766D01*
G75*
G02*
X15601Y4259I782J-101D01*
G01*
Y5881D01*
X14937D01*
G75*
G02*
X14923Y4900I-662J-481D01*
G01*
G36*
X14923Y4900D02*
G75*
G02*
X14968Y3965I-648J-500D01*
G01*
G75*
G02*
X15304Y3800I-68J-565D01*
G01*
X15338Y3766D01*
G75*
G02*
X15601Y4259I782J-101D01*
G01*
Y5881D01*
X14937D01*
G75*
G02*
X14923Y4900I-662J-481D01*
G01*
G37*
X17643Y9331D02*
G75*
G02*
X18505Y8633I-243J-1181D01*
G01*
Y9088D01*
G75*
G02*
X18630Y9213I125J0D01*
G01*
X18956D01*
Y9331D01*
X17643D01*
G36*
X17643Y9331D02*
G75*
G02*
X18505Y8633I-243J-1181D01*
G01*
Y9088D01*
G75*
G02*
X18630Y9213I125J0D01*
G01*
X18956D01*
Y9331D01*
X17643D01*
G37*
D02*
D11*
X2837Y1800D02*
X3037D01*
X4350Y2094D02*
X4150D01*
X4900Y1844D02*
Y1644D01*
X5450Y2094D02*
X5650D01*
X9650Y2425D02*
Y2225D01*
Y3125D02*
Y3325D01*
X12925Y3400D02*
X12725D01*
X13275Y3050D02*
Y2850D01*
X15800Y1885D02*
X15600D01*
X16440D02*
X16640D01*
X18360D02*
X18160D01*
X18680Y1565D02*
Y1365D01*
Y2205D02*
Y2405D01*
D02*
D12*
X2297Y1800D02*
X4606D01*
X4900Y2094D01*
X9650Y1885D02*
X5109D01*
X4900Y2094D01*
X9650Y2775D02*
Y1885D01*
X13275D02*
X9650D01*
X13275Y3400D02*
Y1885D01*
X16120D02*
X13275D01*
D02*
D13*
X4900Y2881D02*
Y2775D01*
X1506D01*
X1150Y2419D01*
Y1150D01*
X1525Y775D01*
X16900D01*
X17400Y1275D01*
Y2525D01*
X17150Y2775D01*
X15525D01*
X14900Y3400D01*
X14275D01*
X4900Y2881D02*
X7131D01*
X7150Y2900D01*
X8525D01*
D02*
D14*
X4900Y3669D02*
X6794D01*
X7150Y4025D01*
Y7900D01*
X4900Y4456D02*
Y8150D01*
X5400Y8650D01*
X8525D01*
X7150Y7900D02*
Y6650D01*
X7400Y6400D01*
X13275D01*
X8525Y7900D02*
Y8650D01*
X13025D01*
X13275Y8400D01*
Y7400D01*
X10650Y2775D02*
X11525D01*
X11900Y3150D01*
Y4025D01*
X12275Y4400D01*
X13275D01*
X14275Y7400D02*
Y8775D01*
X13900Y9150D01*
X4150D01*
X3650Y8650D01*
Y4025D01*
X3397Y3772D01*
X3272D01*
X3268Y3768D01*
X2297D01*
X16120Y3665D02*
Y6305D01*
X16025Y6400D01*
X14275D01*
D02*
D15*
X2297Y1800D03*
Y3768D03*
Y5737D03*
D02*
D16*
X2275Y8025D03*
X17400Y8150D03*
D02*
D17*
X18724Y5525D02*
X19019D01*
Y5697D01*
X18994Y5746D01*
X18945Y5771D01*
X18896Y5746D01*
X18871Y5697D01*
Y5525D01*
X18724Y5919D02*
X19019Y6042D01*
X18724Y6165D01*
X18847Y5968D02*
Y6116D01*
X18724Y6312D02*
X19019D01*
X18871Y6435D01*
X19019Y6558D01*
X18724D01*
Y6780D02*
Y6878D01*
Y6829D02*
X19019D01*
Y6780D02*
Y6878D01*
X18773Y7494D02*
X18748Y7518D01*
X18724Y7567D01*
X18748Y7617D01*
X18773Y7641D01*
X19019D01*
Y7690D01*
Y7641D02*
Y7543D01*
X18724Y7887D02*
X19019Y8010D01*
X18724Y8133D01*
X18847Y7936D02*
Y8084D01*
X18773Y8527D02*
X18748Y8502D01*
X18724Y8453D01*
Y8379D01*
X18748Y8330D01*
X18773Y8306D01*
X18822Y8281D01*
X18921D01*
X18970Y8306D01*
X18994Y8330D01*
X19019Y8379D01*
Y8453D01*
X18994Y8502D01*
X18970Y8527D01*
X18724Y8675D02*
X19019D01*
X18871D02*
Y8748D01*
X19019Y8921D01*
X18871Y8748D02*
X18724Y8921D01*
D02*
D18*
X9650Y2775D03*
X13275Y3400D03*
Y4400D03*
Y5400D03*
Y6400D03*
Y7400D03*
X14275Y3400D03*
Y4400D03*
Y5400D03*
Y6400D03*
Y7400D03*
D02*
D19*
X10650Y2775D03*
D02*
D70*
X4900Y2094D03*
D02*
D71*
Y2881D03*
Y3669D03*
Y4456D03*
D02*
D20*
X7150Y2900D03*
Y7900D03*
X8525Y2900D03*
Y7900D03*
D02*
D21*
X16120Y1885D03*
Y3665D03*
X18680Y1885D03*
Y3665D03*
X0Y0D02*
M02*
