G05
M48
;#@! TF.GenerationSoftware,DesignSpark,DesignSpark PCB,12.0.5940
;#@! TF.CreationDate,2025-05-23T15:09:47--1:00*
;#@! TF.FileFunction,Plated,1,2,PTH
;FILE_FORMAT=3:5
;TYPE=PLATED
INCH,TZ
FMAT,2
T1C000.03150
T2C000.03500
T3C000.04000
T4C000.05906
T5C000.13780
%
T001
X0.71500Y0.29000
X0.71500Y0.79000
X0.85250Y0.29000
X0.85250Y0.79000
T002
X0.96500Y0.27750
X1.06500Y0.27750
T003
X0.49000Y0.20939
X0.49000Y0.28813
X0.49000Y0.36687
X0.49000Y0.44561
X1.32750Y0.34000
X1.32750Y0.44000
X1.32750Y0.54000
X1.32750Y0.64000
X1.32750Y0.74000
X1.42750Y0.34000
X1.42750Y0.44000
X1.42750Y0.54000
X1.42750Y0.64000
X1.42750Y0.74000
X1.61200Y0.18850
X1.61200Y0.36650
X1.86800Y0.18850
X1.86800Y0.36650
T004
X0.22967Y0.17996
X0.22967Y0.37681
X0.22967Y0.57366
T005
X0.22750Y0.80250
X1.74000Y0.81500
M30
