G04 DesignSpark PCB Gerber Version 12.0 Build 5942*
%FSLAX35Y35*%
%MOIN*%
%ADD11C,0.00100*%
%ADD18C,0.00197*%
%ADD15C,0.00200*%
%ADD17C,0.00400*%
%ADD10C,0.00500*%
%ADD14C,0.00591*%
%ADD13C,0.00600*%
%ADD16C,0.00700*%
%ADD12C,0.00787*%
%ADD19C,0.01000*%
X0Y0D02*
D02*
D10*
X47396Y127812D02*
Y165503D01*
X23433D01*
Y127812D01*
X47396D01*
X48444Y203013D02*
X47194D01*
X47819D02*
Y199263D01*
X48444Y199888D01*
X71943Y183174D02*
X71630Y183799D01*
X71006Y184112D01*
X69756D01*
X69130Y183799D01*
X68818Y183174D01*
X69130Y182549D01*
X69756Y182237D01*
X71006D01*
X71630Y181924D01*
X71943Y181299D01*
X71630Y180674D01*
X71006Y180362D01*
X69756D01*
X69130Y180674D01*
X68818Y181299D01*
X66943Y180362D02*
X65380Y184112D01*
X63818Y180362D01*
X61630Y183799D02*
X61006Y184112D01*
X60380D01*
X59756Y183799D01*
X59443Y183174D01*
X59756Y182549D01*
X60380Y182237D01*
X61006D01*
X60380D02*
X59756Y181924D01*
X59443Y181299D01*
X59756Y180674D01*
X60380Y180362D01*
X61006D01*
X61630Y180674D01*
X84908Y202620D02*
Y198870D01*
X86470Y201370D01*
X83970D01*
X90963Y202620D02*
X89713D01*
X90339D02*
Y198870D01*
X90963Y199494D01*
X102371Y60380D02*
X103621D01*
X102996D02*
Y64130D01*
X102371Y63506D01*
X104246Y70380D02*
X101746D01*
X103933Y72568D01*
X104246Y73193D01*
X103933Y73818D01*
X103309Y74130D01*
X102371D01*
X101746Y73818D01*
X114463Y182780D02*
X114150Y183406D01*
X113525Y183718D01*
X112275D01*
X111650Y183406D01*
X111337Y182780D01*
X111650Y182156D01*
X112275Y181843D01*
X113525D01*
X114150Y181530D01*
X114463Y180906D01*
X114150Y180280D01*
X113525Y179968D01*
X112275D01*
X111650Y180280D01*
X111337Y180906D01*
X109463Y179968D02*
X107900Y183718D01*
X106337Y179968D01*
X101963Y183718D02*
X104463D01*
X102275Y181530D01*
X101963Y180906D01*
X102275Y180280D01*
X102900Y179968D01*
X103837D01*
X104463Y180280D01*
X123746Y49443D02*
X140246D01*
X141746Y51443D01*
X143746D01*
Y54443D01*
X139746D01*
X128371Y51880D02*
X129621D01*
X128996D02*
Y55630D01*
X128371Y55006D01*
X133059Y52193D02*
X133683Y51880D01*
X134309D01*
X134933Y52193D01*
X135246Y52818D01*
Y54693D01*
X134933Y55318D01*
X134309Y55630D01*
X133683D01*
X133059Y55318D01*
X132746Y54693D01*
Y52818D01*
X133059Y52193D01*
X134933Y55318D01*
X127428Y202226D02*
Y198476D01*
X128990Y200976D01*
X126490D01*
X143746Y54443D02*
X149746D01*
Y51443D01*
X143746D01*
X149746D02*
X151746D01*
X153246Y49443D01*
X171746D01*
Y84443D01*
X166746D01*
Y85443D01*
X161746D01*
Y84443D01*
X134246D01*
Y85443D01*
X129246D01*
Y84443D01*
X101746D01*
Y85443D01*
X96746D01*
Y84443D01*
X91746D01*
Y49443D01*
X109246D01*
Y49943D01*
X114246D01*
Y49443D01*
X123746D01*
Y54443D01*
X149746D02*
X166746D01*
Y79443D01*
X96746D01*
Y54443D01*
X123746D01*
Y57443D01*
X139746D01*
Y49443D01*
X210029Y67876D02*
X209716Y67563D01*
X209091Y67250D01*
X208154D01*
X207529Y67563D01*
X207216Y67876D01*
X206904Y68500D01*
Y69750D01*
X207216Y70376D01*
X207529Y70688D01*
X208154Y71000D01*
X209091D01*
X209716Y70688D01*
X210029Y70376D01*
X211904Y68500D02*
Y69750D01*
X212216Y70376D01*
X212529Y70688D01*
X213154Y71000D01*
X213779D01*
X214404Y70688D01*
X214716Y70376D01*
X215029Y69750D01*
Y68500D01*
X214716Y67876D01*
X214404Y67563D01*
X213779Y67250D01*
X213154D01*
X212529Y67563D01*
X212216Y67876D01*
X211904Y68500D01*
X216904Y67250D02*
Y71000D01*
X220029Y67250D01*
Y71000D01*
X221904Y67250D02*
Y71000D01*
X225029Y67250D01*
Y71000D01*
X227529Y67250D02*
X228779D01*
X228154D02*
Y71000D01*
X227529Y70376D01*
X221267Y111713D02*
Y184713D01*
X23267D01*
Y111713D01*
X221267D01*
X289349Y198259D02*
X230049D01*
Y67910D01*
X289349D01*
Y198259D01*
X296670Y196864D02*
X293857D01*
X293232Y196552D01*
X292920Y195927D01*
Y194677D01*
X293232Y194052D01*
X293857Y193739D01*
X296670D01*
X293857Y191864D02*
X294482Y191552D01*
X294795Y190927D01*
Y190302D01*
X294482Y189677D01*
X293857Y189364D01*
X293232Y189677D01*
X292920Y190302D01*
Y190927D01*
X293232Y191552D01*
X293857Y191864D01*
X294795D01*
X295732Y191552D01*
X296357Y190927D01*
X296670Y190302D01*
X352455Y59030D02*
X322455D01*
Y39030D01*
X352455D01*
Y59030D01*
Y84030D02*
X322455D01*
Y64030D01*
X352455D01*
Y84030D01*
X373976Y75604D02*
X373350Y75292D01*
X373038Y74667D01*
Y73417D01*
X373350Y72792D01*
X373976Y72479D01*
X374600Y72792D01*
X374913Y73417D01*
Y74667D01*
X375226Y75292D01*
X375850Y75604D01*
X376476Y75292D01*
X376788Y74667D01*
Y73417D01*
X376476Y72792D01*
X375850Y72479D01*
X373038Y69979D02*
Y68729D01*
Y69354D02*
X376788D01*
X376163Y69979D01*
X376404Y194817D02*
X388904D01*
X389904Y193817D01*
Y155817D01*
X388904Y154817D01*
X376404D01*
X386504Y158117D02*
G75*
G03*
Y156117I0J-1000D01*
G01*
G75*
G03*
Y158117I0J1000D01*
G01*
X387738Y197967D02*
X383988D01*
Y200154D01*
X384300Y200779D01*
X384925Y201092D01*
X385550Y200779D01*
X385863Y200154D01*
Y197967D01*
Y200154D02*
X387738Y201092D01*
Y202967D02*
X383988D01*
Y206092D01*
X385863Y205467D02*
Y202967D01*
X387738D02*
Y206092D01*
X386175Y210154D02*
Y211092D01*
X386488D01*
X387113Y210779D01*
X387425Y210467D01*
X387738Y209842D01*
Y209217D01*
X387425Y208592D01*
X387113Y208279D01*
X386488Y207967D01*
X385238D01*
X384613Y208279D01*
X384300Y208592D01*
X383988Y209217D01*
Y209842D01*
X384300Y210467D01*
X384613Y210779D01*
X385238Y211092D01*
D02*
D11*
X374904Y153817D02*
Y195817D01*
X371904D01*
Y153817D01*
X374904D01*
G36*
X374904Y153817D02*
Y195817D01*
X371904D01*
Y153817D01*
X374904D01*
G37*
X376904D02*
Y161317D01*
X374904D01*
Y153817D01*
X376904D01*
G36*
X376904Y153817D02*
Y161317D01*
X374904D01*
Y153817D01*
X376904D01*
G37*
Y168317D02*
Y171317D01*
X374904D01*
Y168317D01*
X376904D01*
G36*
X376904Y168317D02*
Y171317D01*
X374904D01*
Y168317D01*
X376904D01*
G37*
Y178317D02*
Y181317D01*
X374904D01*
Y178317D01*
X376904D01*
G36*
X376904Y178317D02*
Y181317D01*
X374904D01*
Y178317D01*
X376904D01*
G37*
Y188317D02*
Y195817D01*
X374904D01*
Y188317D01*
X376904D01*
G36*
X376904Y188317D02*
Y195817D01*
X374904D01*
Y188317D01*
X376904D01*
G37*
D02*
D12*
X282061Y201136D02*
G75*
G03*
Y201923I0J394D01*
G01*
G75*
G03*
Y201136I0J-394D01*
G01*
D02*
D13*
X49069Y194502D02*
X83321D01*
Y208675D01*
X49463D02*
X83321D01*
Y212006D01*
G75*
G03*
X82321Y213006I-1000J0D01*
G01*
X73872D01*
Y210644D01*
X58518D01*
Y213006D01*
X83321Y196549D02*
Y190778D01*
G75*
G02*
X82321Y189778I-1000J0D01*
G01*
X50069D01*
G75*
G02*
X49069Y190778I0J1000D01*
G01*
Y212006D01*
G75*
G02*
X50069Y213006I1000J0D01*
G01*
X58518D01*
Y216049D01*
X47526D01*
G75*
G03*
X45526Y214049I0J-2000D01*
G01*
Y189049D01*
G75*
G03*
X47526Y187049I2000J0D01*
G01*
X85258D01*
G75*
G03*
X87258Y189049I0J2000D01*
G01*
Y214049D01*
G75*
G03*
X85258Y216049I-2000J0D01*
G01*
X73872D01*
Y212049D01*
X91589Y194108D02*
X125841D01*
Y208281D01*
X91982D02*
X125841D01*
Y211612D01*
G75*
G03*
X124841Y212612I-1000J0D01*
G01*
X116392D01*
Y210250D01*
X101037D01*
Y212612D01*
X125841Y196156D02*
Y190384D01*
G75*
G02*
X124841Y189384I-1000J0D01*
G01*
X92589D01*
G75*
G02*
X91589Y190384I0J1000D01*
G01*
Y211612D01*
G75*
G02*
X92589Y212612I1000J0D01*
G01*
X101037D01*
Y215656D01*
X90045D01*
G75*
G03*
X88045Y213656I0J-2000D01*
G01*
Y188656D01*
G75*
G03*
X90045Y186656I2000J0D01*
G01*
X127778D01*
G75*
G03*
X129778Y188656I0J2000D01*
G01*
Y213656D01*
G75*
G03*
X127778Y215656I-2000J0D01*
G01*
X116392D01*
Y211656D01*
X380348Y59219D02*
Y55219D01*
Y65219D02*
Y69219D01*
X380548Y58946D02*
G75*
G03*
X382568Y56209I7300J3272D01*
G01*
X380548Y58946D02*
G75*
G03*
X382568Y56209I7300J3272D01*
G01*
Y68228D02*
G75*
G03*
X380548Y65491I5280J-6009D01*
G01*
X382568Y68228D02*
G75*
G03*
X380548Y65491I5280J-6009D01*
G01*
X382723Y58220D02*
G75*
G03*
X392974I5125J3998D01*
G01*
X386209Y54388D02*
G75*
G03*
Y70049I1640J7830D01*
G01*
X386348Y74719D02*
X395348D01*
Y49719D01*
X386348D01*
X392974Y66217D02*
G75*
G03*
X382723I-5125J-3998D01*
G01*
X396848Y76219D02*
X378848D01*
Y48219D01*
X396848D01*
Y76219D01*
D02*
D14*
X25722Y106067D02*
Y109020D01*
X28183D01*
X27691Y107543D02*
X25722D01*
X29906Y106313D02*
X30398Y106067D01*
X30890D01*
X31382Y106313D01*
X31628Y106805D01*
X31382Y107297D01*
X30890Y107543D01*
X30398D01*
X30890D02*
X31382Y107789D01*
X31628Y108281D01*
X31382Y108774D01*
X30890Y109020D01*
X30398D01*
X29906Y108774D01*
X33843Y106313D02*
X34335Y106067D01*
X34827D01*
X35319Y106313D01*
X35565Y106805D01*
Y108281D01*
X35319Y108774D01*
X34827Y109020D01*
X34335D01*
X33843Y108774D01*
X33596Y108281D01*
Y106805D01*
X33843Y106313D01*
X35319Y108774D01*
X37780Y106313D02*
X38272Y106067D01*
X38764D01*
X39256Y106313D01*
X39502Y106805D01*
X39256Y107297D01*
X38764Y107543D01*
X38272D01*
X38764D02*
X39256Y107789D01*
X39502Y108281D01*
X39256Y108774D01*
X38764Y109020D01*
X38272D01*
X37780Y108774D01*
X41470Y106067D02*
Y109020D01*
Y107543D02*
X42209D01*
X43931Y109020D01*
X42209Y107543D02*
X43931Y106067D01*
X46146Y107543D02*
X46638D01*
X47130Y107789D01*
X47376Y108281D01*
X47130Y108774D01*
X46638Y109020D01*
X46146D01*
X45654Y108774D01*
X45407Y108281D01*
X45654Y107789D01*
X46146Y107543D01*
X45654Y107297D01*
X45407Y106805D01*
X45654Y106313D01*
X46146Y106067D01*
X46638D01*
X47130Y106313D01*
X47376Y106805D01*
X47130Y107297D01*
X46638Y107543D01*
X29030Y87760D02*
Y90713D01*
X30752D01*
X31244Y90467D01*
X31490Y89974D01*
X31244Y89482D01*
X30752Y89236D01*
X29030D01*
X32967Y89482D02*
X33459Y89728D01*
X34197D01*
X34689Y89482D01*
X34935Y88990D01*
Y88252D01*
X34689Y88006D01*
X34197Y87760D01*
X33705D01*
X33213Y88006D01*
X32967Y88252D01*
Y88498D01*
X33213Y88744D01*
X33705Y88990D01*
X34197D01*
X34689Y88744D01*
X34935Y88498D01*
Y88252D02*
Y87760D01*
X36904D02*
Y89728D01*
Y89482D02*
X37150Y89728D01*
X37642D01*
X37888Y89482D01*
Y88744D01*
Y89482D02*
X38134Y89728D01*
X38626D01*
X38872Y89482D01*
Y87760D01*
X41825D02*
Y89728D01*
Y90467D02*
X48715Y87760D02*
Y90713D01*
X50437D01*
X50929Y90467D01*
X51175Y89974D01*
X50929Y89482D01*
X50437Y89236D01*
X48715D01*
X52652Y89482D02*
X53144Y89728D01*
X53882D01*
X54374Y89482D01*
X54620Y88990D01*
Y88252D01*
X54374Y88006D01*
X53882Y87760D01*
X53390D01*
X52898Y88006D01*
X52652Y88252D01*
Y88498D01*
X52898Y88744D01*
X53390Y88990D01*
X53882D01*
X54374Y88744D01*
X54620Y88498D01*
Y88252D02*
Y87760D01*
X56589Y88498D02*
X56835Y88006D01*
X57327Y87760D01*
X57819D01*
X58311Y88006D01*
X58557Y88498D01*
Y88990D01*
X58311Y89482D01*
X57819Y89728D01*
X57327D01*
X56835Y89482D01*
X56589Y88990D01*
Y87760D02*
Y90713D01*
X61756Y87760D02*
X61510D01*
Y90713D01*
X64463Y88498D02*
X64709Y88006D01*
X65201Y87760D01*
X65693D01*
X66185Y88006D01*
X66431Y88498D01*
Y88990D01*
X66185Y89482D01*
X65693Y89728D01*
X65201D01*
X64709Y89482D01*
X64463Y88990D01*
Y88498D01*
X74305Y87760D02*
X72337D01*
X74059Y89482D01*
X74305Y89974D01*
X74059Y90467D01*
X73567Y90713D01*
X72829D01*
X72337Y90467D01*
X76520Y88006D02*
X77012Y87760D01*
X77504D01*
X77996Y88006D01*
X78242Y88498D01*
Y89974D01*
X77996Y90467D01*
X77504Y90713D01*
X77012D01*
X76520Y90467D01*
X76274Y89974D01*
Y88498D01*
X76520Y88006D01*
X77996Y90467D01*
X82179Y87760D02*
X80211D01*
X81933Y89482D01*
X82179Y89974D01*
X81933Y90467D01*
X81441Y90713D01*
X80703D01*
X80211Y90467D01*
X84148Y88006D02*
X84640Y87760D01*
X85378D01*
X85870Y88006D01*
X86116Y88498D01*
Y88744D01*
X85870Y89236D01*
X85378Y89482D01*
X84148D01*
Y90713D01*
X86116D01*
X79167Y60634D02*
X80152D01*
X79659D02*
Y63587D01*
X79167Y63094D01*
X83843Y60634D02*
X85073Y61864D01*
X83843Y63094D01*
X87780Y60634D02*
X89010Y61864D01*
X87780Y63094D01*
X134325Y202169D02*
X133094Y203400D01*
X134325Y204630D01*
X138262Y202169D02*
X137031Y203400D01*
X138262Y204630D01*
X142199Y202661D02*
X141953Y202415D01*
X141461Y202169D01*
X140722D01*
X140230Y202415D01*
X139984Y202661D01*
X139738Y203154D01*
Y204138D01*
X139984Y204630D01*
X140230Y204876D01*
X140722Y205122D01*
X141461D01*
X141953Y204876D01*
X142199Y204630D01*
X143675Y203892D02*
X144167Y204138D01*
X144906D01*
X145398Y203892D01*
X145644Y203400D01*
Y202661D01*
X145398Y202415D01*
X144906Y202169D01*
X144413D01*
X143921Y202415D01*
X143675Y202661D01*
Y202907D01*
X143921Y203154D01*
X144413Y203400D01*
X144906D01*
X145398Y203154D01*
X145644Y202907D01*
Y202661D02*
Y202169D01*
X147612Y204138D02*
Y201431D01*
Y202907D02*
X147858Y202415D01*
X148350Y202169D01*
X148843D01*
X149335Y202415D01*
X149581Y202907D01*
Y203400D01*
X149335Y203892D01*
X148843Y204138D01*
X148350D01*
X147858Y203892D01*
X147612Y203400D01*
Y202907D01*
X151959Y204138D02*
X153107D01*
X152533Y204630D02*
Y202415D01*
X152780Y202169D01*
X153026D01*
X153272Y202415D01*
X157455D02*
X157209Y202169D01*
X156717D01*
X156224D01*
X155732Y202415D01*
X155486Y202907D01*
Y203646D01*
X155732Y203892D01*
X156224Y204138D01*
X156717D01*
X157209Y203892D01*
X157455Y203646D01*
Y203400D01*
X157209Y203154D01*
X156717Y202907D01*
X156224D01*
X155732Y203154D01*
X155486Y203400D01*
X159423Y204138D02*
Y202907D01*
X159669Y202415D01*
X160161Y202169D01*
X160654D01*
X161146Y202415D01*
X161392Y202907D01*
Y204138D02*
Y202169D01*
X163360D02*
Y204138D01*
Y203400D02*
X163606Y203892D01*
X164098Y204138D01*
X164591D01*
X165083Y203892D01*
X167297Y202415D02*
X167789Y202169D01*
X168774D01*
X169266Y202415D01*
Y202907D01*
X168774Y203154D01*
X167789D01*
X167297Y203400D01*
Y203892D01*
X167789Y204138D01*
X168774D01*
X169266Y203892D01*
X176402Y202169D02*
X176156D01*
Y205122D01*
X180093Y202169D02*
Y204138D01*
Y204876D02*
X185014Y203400D02*
X184768Y203892D01*
X184276Y204138D01*
X183783D01*
X183291Y203892D01*
X183045Y203400D01*
Y203154D01*
X183291Y202661D01*
X183783Y202415D01*
X184276D01*
X184768Y202661D01*
X185014Y203154D01*
Y204138D02*
Y202169D01*
X184768Y201677D01*
X184276Y201431D01*
X183537D01*
X183045Y201677D01*
X186982Y202169D02*
Y204138D01*
Y203400D02*
X187228Y203892D01*
X187720Y204138D01*
X188213D01*
X188705Y203892D01*
X188951Y203400D01*
Y202169D01*
X192888Y202415D02*
X192642Y202169D01*
X192150D01*
X191657D01*
X191165Y202415D01*
X190919Y202907D01*
Y203646D01*
X191165Y203892D01*
X191657Y204138D01*
X192150D01*
X192642Y203892D01*
X192888Y203646D01*
Y203400D01*
X192642Y203154D01*
X192150Y202907D01*
X191657D01*
X191165Y203154D01*
X190919Y203400D01*
X194856Y47809D02*
X195348Y47563D01*
X196333D01*
X196825Y47809D01*
Y48301D01*
X196333Y48547D01*
X195348D01*
X194856Y48793D01*
Y49285D01*
X195348Y49531D01*
X196333D01*
X196825Y49285D01*
X200762Y47809D02*
X200516Y47563D01*
X200024D01*
X199531D01*
X199039Y47809D01*
X198793Y48301D01*
Y49039D01*
X199039Y49285D01*
X199531Y49531D01*
X200024D01*
X200516Y49285D01*
X200762Y49039D01*
Y48793D01*
X200516Y48547D01*
X200024Y48301D01*
X199531D01*
X199039Y48547D01*
X198793Y48793D01*
X202730Y47563D02*
Y49531D01*
Y48793D02*
X202976Y49285D01*
X203469Y49531D01*
X203961D01*
X204453Y49285D01*
X206667Y49531D02*
X207652Y47563D01*
X208636Y49531D01*
X210604Y48301D02*
X210850Y47809D01*
X211343Y47563D01*
X211835D01*
X212327Y47809D01*
X212573Y48301D01*
Y48793D01*
X212327Y49285D01*
X211835Y49531D01*
X211343D01*
X210850Y49285D01*
X210604Y48793D01*
Y48301D01*
X216864Y50516D02*
X218094Y47563D01*
X219325Y50516D01*
X223262Y48055D02*
X223016Y47809D01*
X222524Y47563D01*
X221785D01*
X221293Y47809D01*
X221047Y48055D01*
X220801Y48547D01*
Y49531D01*
X221047Y50024D01*
X221293Y50270D01*
X221785Y50516D01*
X222524D01*
X223016Y50270D01*
X223262Y50024D01*
X227199Y48055D02*
X226953Y47809D01*
X226461Y47563D01*
X225722D01*
X225230Y47809D01*
X224984Y48055D01*
X224738Y48547D01*
Y49531D01*
X224984Y50024D01*
X225230Y50270D01*
X225722Y50516D01*
X226461D01*
X226953Y50270D01*
X227199Y50024D01*
X232760Y48793D02*
X233498D01*
Y48547D01*
X233252Y48055D01*
X233006Y47809D01*
X232514Y47563D01*
X232022D01*
X231530Y47809D01*
X231283Y48055D01*
X231037Y48547D01*
Y49531D01*
X231283Y50024D01*
X231530Y50270D01*
X232022Y50516D01*
X232514D01*
X233006Y50270D01*
X233252Y50024D01*
X233498Y49531D01*
X234974Y47563D02*
Y50516D01*
X237435Y47563D01*
Y50516D01*
X238911Y47563D02*
Y50516D01*
X240388D01*
X240880Y50270D01*
X241126Y50024D01*
X241372Y49531D01*
Y48547D01*
X241126Y48055D01*
X240880Y47809D01*
X240388Y47563D01*
X238911D01*
X374463Y40043D02*
Y42996D01*
X376923Y40043D01*
Y42996D01*
X380860Y40535D02*
X380614Y40289D01*
X380122Y40043D01*
X379384D01*
X378892Y40289D01*
X378646Y40535D01*
X378400Y41028D01*
Y42012D01*
X378646Y42504D01*
X378892Y42750D01*
X379384Y42996D01*
X380122D01*
X380614Y42750D01*
X380860Y42504D01*
X378469Y80594D02*
X379453D01*
X378961D02*
Y83547D01*
X378469D02*
X379453D01*
X381667Y80594D02*
Y82563D01*
Y81825D02*
X381913Y82317D01*
X382406Y82563D01*
X382898D01*
X383390Y82317D01*
X383636Y81825D01*
Y80594D01*
X386015Y82563D02*
X387163D01*
X386589Y83055D02*
Y80841D01*
X386835Y80594D01*
X387081D01*
X387327Y80841D01*
X391510D02*
X391264Y80594D01*
X390772D01*
X390280D01*
X389787Y80841D01*
X389541Y81333D01*
Y82071D01*
X389787Y82317D01*
X390280Y82563D01*
X390772D01*
X391264Y82317D01*
X391510Y82071D01*
Y81825D01*
X391264Y81579D01*
X390772Y81333D01*
X390280D01*
X389787Y81579D01*
X389541Y81825D01*
X393478Y80594D02*
Y82563D01*
Y81825D02*
X393724Y82317D01*
X394217Y82563D01*
X394709D01*
X395201Y82317D01*
X395713Y155319D02*
X395959Y155811D01*
X396451Y156057D01*
X396943Y155811D01*
X397189Y155319D01*
Y153596D01*
X394236D01*
Y155319D01*
X394482Y155811D01*
X394974Y156057D01*
X395467Y155811D01*
X395713Y155319D01*
Y153596D01*
X395467Y157533D02*
X395220Y158026D01*
Y158764D01*
X395467Y159256D01*
X395959Y159502D01*
X396697D01*
X396943Y159256D01*
X397189Y158764D01*
Y158272D01*
X396943Y157780D01*
X396697Y157533D01*
X396451D01*
X396205Y157780D01*
X395959Y158272D01*
Y158764D01*
X396205Y159256D01*
X396451Y159502D01*
X396697D02*
X397189D01*
X395220Y161881D02*
Y163029D01*
X394728Y162455D02*
X396943D01*
X397189Y162701D01*
Y162947D01*
X396943Y163193D01*
X395959Y171067D02*
Y171805D01*
X396205D01*
X396697Y171559D01*
X396943Y171313D01*
X397189Y170821D01*
Y170329D01*
X396943Y169837D01*
X396697Y169591D01*
X396205Y169344D01*
X395220D01*
X394728Y169591D01*
X394482Y169837D01*
X394236Y170329D01*
Y170821D01*
X394482Y171313D01*
X394728Y171559D01*
X395220Y171805D01*
X397189Y173281D02*
X394236D01*
X397189Y175742D01*
X394236D01*
X397189Y177219D02*
X394236D01*
Y178695D01*
X394482Y179187D01*
X394728Y179433D01*
X395220Y179679D01*
X396205D01*
X396697Y179433D01*
X396943Y179187D01*
X397189Y178695D01*
Y177219D01*
X396943Y185093D02*
X397189Y185585D01*
Y186323D01*
X396943Y186815D01*
X396451Y187061D01*
X396205D01*
X395713Y186815D01*
X395467Y186323D01*
Y185093D01*
X394236D01*
Y187061D01*
Y189030D02*
X397189Y190260D01*
X394236Y191490D01*
D02*
D15*
X143746Y53443D02*
X139746D01*
X149746D02*
X167746D01*
Y80443D01*
X95746D01*
Y53443D01*
X123746D01*
D02*
D16*
X151352Y89568D02*
X151790Y88693D01*
X152665Y88256D01*
X154415D01*
X155290Y88693D01*
X155728Y89568D01*
X155290Y90443D01*
X154415Y90880D01*
X152665D01*
X151790Y91318D01*
X151352Y92193D01*
X151790Y93068D01*
X152665Y93506D01*
X154415D01*
X155290Y93068D01*
X155728Y92193D01*
X158352Y93506D02*
X160540Y88256D01*
X162728Y93506D01*
X166228Y88256D02*
X167978D01*
X167102D02*
Y93506D01*
X166228Y92630D01*
D02*
D17*
X349330Y37467D02*
X349642Y37780D01*
X350267Y38092D01*
X351205D01*
X351830Y37780D01*
X352142Y37467D01*
X352455Y36842D01*
Y35592D01*
X352142Y34967D01*
X351830Y34654D01*
X351205Y34342D01*
X350267D01*
X349642Y34654D01*
X349330Y34967D01*
X344955Y38092D02*
X347455D01*
X345267Y35904D01*
X344955Y35280D01*
X345267Y34654D01*
X345892Y34342D01*
X346830D01*
X347455Y34654D01*
X349330Y62467D02*
X349642Y62780D01*
X350267Y63092D01*
X351205D01*
X351830Y62780D01*
X352142Y62467D01*
X352455Y61842D01*
Y60592D01*
X352142Y59967D01*
X351830Y59654D01*
X351205Y59342D01*
X350267D01*
X349642Y59654D01*
X349330Y59967D01*
X346830Y63092D02*
X345580D01*
X346205D02*
Y59342D01*
X346830Y59967D01*
D02*
D18*
X290333Y199244D02*
X229065D01*
Y66926D01*
X290333D01*
Y199244D01*
D02*
D19*
X236549Y65053D02*
X206549D01*
Y55053D01*
X236549D01*
Y65053D01*
X0Y0D02*
M02*
