G05
M48
;#@! TF.GenerationSoftware,DesignSpark,DesignSpark PCB,12.0.5940
;#@! TF.CreationDate,2025-03-13T23:32:10--1:00*
;#@! TF.FileFunction,Plated,1,2,PTH
;FILE_FORMAT=3:5
;TYPE=PLATED
INCH,TZ
FMAT,2
T1C000.00787
T2C000.01575
T3C000.02500
T4C000.03200
T5C000.03500
T6C000.03583
T7C000.03937
T8C000.04000
T9C000.04700
T10C000.05906
T11C000.11811
%
T001
X3.38045Y1.55014
X3.38400Y1.51785
T002
X0.46707Y1.86234
X0.56549Y1.58281
X0.72297Y1.37809
X0.92376Y1.30329
X1.45919Y1.29935
X1.56943Y1.60644
X1.76628Y1.29935
X2.07337Y1.79148
X2.15998Y1.29541
X2.15998Y1.79148
X2.23478Y1.29541
X2.37652Y1.70093
X2.38439Y1.59856
X2.58518Y1.10250
X2.80959Y1.60644
X2.81352Y1.36234
X2.87652Y1.44108
X3.02219Y1.87022
X3.02219Y2.07888
X3.12848Y1.02770
X3.63242Y1.06707
T003
X2.00683Y2.11608
X2.10683Y2.11608
X2.20683Y2.11608
X2.30683Y2.11608
X3.27455Y0.49030
X3.27455Y0.74030
X3.47455Y0.49030
X3.47455Y0.74030
T004
X3.23439Y1.17376
X3.23439Y1.27376
X3.23439Y1.37376
X3.23439Y1.47376
X3.23439Y1.57376
X3.23439Y1.67376
X3.23439Y1.77376
X3.23439Y1.87376
X3.53439Y1.17376
X3.53439Y1.27376
X3.53439Y1.37376
X3.53439Y1.47376
X3.53439Y1.57376
X3.53439Y1.67376
X3.53439Y1.77376
X3.53439Y1.87376
X3.92848Y0.52219
X3.92848Y0.72219
T005
X0.56267Y1.18587
X0.56267Y1.78587
X0.66267Y1.18587
X0.66267Y1.78587
X0.76267Y1.18587
X0.76267Y1.78587
X0.86267Y1.18587
X0.86267Y1.78587
X0.96267Y1.18587
X0.96267Y1.78587
X1.06267Y1.18587
X1.06267Y1.78587
X1.16267Y1.18587
X1.16267Y1.78587
X1.26267Y1.18587
X1.26267Y1.78587
X1.36267Y1.18587
X1.36267Y1.78587
X1.46267Y1.18587
X1.46267Y1.78587
X1.56267Y1.18587
X1.56267Y1.78587
X1.66267Y1.18587
X1.66267Y1.78587
X1.76267Y1.18587
X1.76267Y1.78587
X1.86267Y1.18587
X1.86267Y1.78587
X1.96267Y1.18587
X1.96267Y1.78587
T006
X2.11549Y0.60053
X2.21549Y0.60053
X2.31549Y0.60053
T007
X3.82848Y0.52219
X3.82848Y0.62219
X3.82848Y0.72219
T008
X0.54187Y2.01589
X0.62061Y2.01589
X0.69935Y2.01589
X0.77809Y2.01589
X0.96707Y2.01195
X1.04581Y2.01195
X1.11746Y0.61943
X1.11746Y0.71943
X1.12455Y2.01195
X1.20329Y2.01195
X1.21746Y0.61943
X1.21746Y0.71943
X1.31746Y0.61943
X1.31746Y0.71943
X1.41746Y0.61943
X1.41746Y0.71943
X1.51746Y0.61943
X1.51746Y0.71943
X2.52017Y1.83260
X2.52017Y1.93259
X2.62017Y1.83260
X2.62017Y1.93259
X2.72017Y1.83260
X2.72017Y1.93259
X2.82017Y1.83260
X2.82017Y1.93259
X3.81904Y1.64817
X3.81904Y1.74817
X3.81904Y1.84817
T009
X0.50506Y0.54581
X0.50506Y0.74581
X2.61116Y0.51726
X2.81116Y0.51726
X3.82474Y1.20998
X3.82474Y1.40998
T010
X3.64620Y0.43321
X3.64620Y0.63006
X3.64620Y0.82691
T011
X1.30959Y0.94896
X1.30959Y1.59069
X2.99069Y1.62612
X2.99463Y0.70880
M30
