G04 DesignSpark PCB Gerber Version 12.0 Build 5942*
%FSLAX35Y35*%
%MOIN*%
%ADD10C,0.00500*%
%ADD14C,0.00591*%
%ADD13C,0.00600*%
%ADD19C,0.01000*%
X0Y0D02*
D02*
D10*
X58743Y69781D02*
Y67281D01*
X60931Y69468D01*
X61556Y69781D01*
X62181Y69468D01*
X62493Y68843D01*
Y67906D01*
X62181Y67281D01*
X58943Y47706D02*
Y48956D01*
Y48331D02*
X62693D01*
X62069Y47706D01*
X254241Y43289D02*
X255491D01*
X254866D02*
Y39539D01*
X254241Y40164D01*
X276316Y43489D02*
X273816D01*
X276004Y41301D01*
X276316Y40676D01*
X276004Y40051D01*
X275379Y39739D01*
X274441D01*
X273816Y40051D01*
X374037Y147873D02*
Y146623D01*
Y147248D02*
X370287D01*
X370912Y147873D01*
X374237Y125798D02*
Y128298D01*
X372049Y126111D01*
X371424Y125798D01*
X370799Y126111D01*
X370487Y126735D01*
Y127673D01*
X370799Y128298D01*
D02*
D13*
X43506Y51081D02*
Y58081D01*
Y71081D02*
Y78081D01*
X50506Y60481D02*
G75*
G02*
Y48681I0J-5900D01*
G01*
G75*
G02*
Y60481I0J5900D01*
G01*
Y80481D02*
G75*
G02*
Y68681I0J-5900D01*
G01*
G75*
G02*
Y80481I0J5900D01*
G01*
X257616Y58726D02*
X264616D01*
X267016Y51726D02*
G75*
G02*
X255216I-5900J0D01*
G01*
G75*
G02*
X267016I5900J0D01*
G01*
X277616Y58726D02*
X284616D01*
X287016Y51726D02*
G75*
G02*
X275216I-5900J0D01*
G01*
G75*
G02*
X287016I5900J0D01*
G01*
X382474Y115098D02*
G75*
G02*
Y126898I0J5900D01*
G01*
G75*
G02*
Y115098I0J-5900D01*
G01*
Y135098D02*
G75*
G02*
Y146898I0J5900D01*
G01*
G75*
G02*
Y135098I0J-5900D01*
G01*
X389474Y124498D02*
Y117498D01*
Y144498D02*
Y137498D01*
D02*
D14*
X283488Y73321D02*
X282750D01*
Y73075D01*
X282996Y72583D01*
X283242Y72337D01*
X283734Y72091D01*
X284226D01*
X284719Y72337D01*
X284965Y72583D01*
X285211Y73075D01*
Y74059D01*
X284965Y74551D01*
X284719Y74797D01*
X284226Y75043D01*
X283734D01*
X283242Y74797D01*
X282996Y74551D01*
X282750Y74059D01*
X281274Y72091D02*
Y75043D01*
X278813Y72091D01*
Y75043D01*
X277337Y72091D02*
Y75043D01*
X275860D01*
X275368Y74797D01*
X275122Y74551D01*
X274876Y74059D01*
Y73075D01*
X275122Y72583D01*
X275368Y72337D01*
X275860Y72091D01*
X277337D01*
X267740Y73567D02*
X267248Y73321D01*
X267002Y72829D01*
X267248Y72337D01*
X267740Y72091D01*
X269463D01*
Y75043D01*
X267740D01*
X267248Y74797D01*
X267002Y74305D01*
X267248Y73813D01*
X267740Y73567D01*
X269463D01*
X265526Y72091D02*
X264295Y75043D01*
X263065Y72091D01*
X265033Y73321D02*
X263557D01*
X260358Y72091D02*
Y75043D01*
X261589D02*
X259128D01*
D02*
D19*
X46406Y70981D02*
X54406Y78481D01*
X46506Y50681D02*
X54406Y58581D01*
X257216Y55726D02*
X265116Y47826D01*
X277516Y55826D02*
X285016Y47826D01*
X386474Y144898D02*
X378574Y136998D01*
X386574Y124598D02*
X378574Y117098D01*
X0Y0D02*
M02*
