G04 DesignSpark PCB Gerber Version 12.0 Build 5942*
%FSLAX35Y35*%
%MOIN*%
%ADD102C,0.00787*%
%ADD100C,0.01575*%
%ADD108C,0.02500*%
%ADD104C,0.03200*%
%ADD107C,0.03500*%
%ADD110C,0.03583*%
%ADD109C,0.03937*%
%ADD105C,0.04000*%
%ADD106C,0.04700*%
%ADD101C,0.05906*%
%ADD103C,0.11811*%
X0Y0D02*
D02*
D100*
X46707Y186234D03*
X56549Y158281D03*
X72297Y137809D03*
X92376Y130329D03*
X145919Y129935D03*
X156943Y160644D03*
X176628Y129935D03*
X207337Y179148D03*
X215998Y129541D03*
Y179148D03*
X223478Y129541D03*
X237652Y170093D03*
X238439Y159856D03*
X258518Y110250D03*
X280959Y160644D03*
X281352Y136234D03*
X287652Y144108D03*
X302219Y187022D03*
Y207888D03*
X312848Y102770D03*
X363242Y106707D03*
D02*
D101*
X364620Y43321D03*
Y63006D03*
Y82691D03*
D02*
D102*
X338045Y155014D03*
X338400Y151785D03*
D02*
D103*
X130959Y94896D03*
Y159069D03*
X299069Y162612D03*
X299463Y70880D03*
D02*
D104*
X323439Y117376D03*
Y127376D03*
Y137376D03*
Y147376D03*
Y157376D03*
Y167376D03*
Y177376D03*
Y187376D03*
X353439Y117376D03*
Y127376D03*
Y137376D03*
Y147376D03*
Y157376D03*
Y167376D03*
Y177376D03*
Y187376D03*
X392848Y52219D03*
Y72219D03*
D02*
D105*
X54187Y201589D03*
X62061D03*
X69935D03*
X77809D03*
X96707Y201195D03*
X104581D03*
X111746Y61943D03*
Y71943D03*
X112455Y201195D03*
X120329D03*
X121746Y61943D03*
Y71943D03*
X131746Y61943D03*
Y71943D03*
X141746Y61943D03*
Y71943D03*
X151746Y61943D03*
Y71943D03*
X252017Y183260D03*
Y193259D03*
X262017Y183260D03*
Y193259D03*
X272017Y183260D03*
Y193259D03*
X282017Y183260D03*
Y193259D03*
X381904Y164817D03*
Y174817D03*
Y184817D03*
D02*
D106*
X50506Y54581D03*
Y74581D03*
X261116Y51726D03*
X281116D03*
X382474Y120998D03*
Y140998D03*
D02*
D107*
X56267Y118587D03*
Y178587D03*
X66267Y118587D03*
Y178587D03*
X76267Y118587D03*
Y178587D03*
X86267Y118587D03*
Y178587D03*
X96267Y118587D03*
Y178587D03*
X106267Y118587D03*
Y178587D03*
X116267Y118587D03*
Y178587D03*
X126267Y118587D03*
Y178587D03*
X136267Y118587D03*
Y178587D03*
X146267Y118587D03*
Y178587D03*
X156267Y118587D03*
Y178587D03*
X166267Y118587D03*
Y178587D03*
X176267Y118587D03*
Y178587D03*
X186267Y118587D03*
Y178587D03*
X196267Y118587D03*
Y178587D03*
D02*
D108*
X200683Y211608D03*
X210683D03*
X220683D03*
X230683D03*
X327455Y49030D03*
Y74030D03*
X347455Y49030D03*
Y74030D03*
D02*
D109*
X382848Y52219D03*
Y62219D03*
Y72219D03*
D02*
D110*
X211549Y60053D03*
X221549D03*
X231549D03*
X0Y0D02*
M02*
