G04 DesignSpark PCB Gerber Version 12.0 Build 5942*
%FSLAX35Y35*%
%MOIN*%
%ADD11C,0.00100*%
%ADD10C,0.00500*%
%ADD13C,0.00600*%
%ADD12C,0.00787*%
X0Y0D02*
D02*
D10*
X227173Y120013D02*
Y121263D01*
Y120639D02*
X223423D01*
Y120013D02*
Y121263D01*
X226548Y127201D02*
X226861Y126889D01*
X227173Y126263D01*
Y125326D01*
X226861Y124701D01*
X226548Y124389D01*
X225923Y124076D01*
X224673D01*
X224048Y124389D01*
X223735Y124701D01*
X223423Y125326D01*
Y126263D01*
X223735Y126889D01*
X224048Y127201D01*
X227173Y131576D02*
Y129076D01*
X224985Y131263D01*
X224361Y131576D01*
X223735Y131263D01*
X223423Y130639D01*
Y129701D01*
X223735Y129076D01*
X243163Y96864D02*
X54581D01*
Y37415D01*
X243163D01*
Y96864D01*
X289349Y198259D02*
X230049D01*
Y67910D01*
X289349D01*
Y198259D01*
X383466Y162942D02*
Y164192D01*
Y163567D02*
X379716D01*
X380341Y162942D01*
X383466Y174817D02*
Y172317D01*
X381278Y174504D01*
X380654Y174817D01*
X380028Y174504D01*
X379716Y173880D01*
Y172942D01*
X380028Y172317D01*
X383154Y182630D02*
X383466Y183254D01*
Y183880D01*
X383154Y184504D01*
X382528Y184817D01*
X381904Y184504D01*
X381591Y183880D01*
Y183254D01*
Y183880D02*
X381278Y184504D01*
X380654Y184817D01*
X380028Y184504D01*
X379716Y183880D01*
Y183254D01*
X380028Y182630D01*
D02*
D11*
X33756Y142539D02*
X35724D01*
X36162Y142758D01*
X36381Y143195D01*
Y144070D01*
X36162Y144508D01*
X35724Y144726D01*
X33756D01*
X35724Y146039D02*
X36162Y146258D01*
X36381Y146695D01*
Y147570D01*
X36162Y148008D01*
X35724Y148226D01*
X35287Y148008D01*
X35068Y147570D01*
Y146695D01*
X34850Y146258D01*
X34412Y146039D01*
X33974Y146258D01*
X33756Y146695D01*
Y147570D01*
X33974Y148008D01*
X34412Y148226D01*
X35068Y151070D02*
X35287Y151508D01*
X35724Y151726D01*
X36162Y151508D01*
X36381Y151070D01*
Y149539D01*
X33756D01*
Y151070D01*
X33974Y151508D01*
X34412Y151726D01*
X34850Y151508D01*
X35068Y151070D01*
Y149539D01*
X110746Y60943D02*
X112746D01*
Y62943D01*
X110746D01*
Y60943D01*
G36*
X110746Y60943D02*
X112746D01*
Y62943D01*
X110746D01*
Y60943D01*
G37*
Y70943D02*
X112746D01*
Y72943D01*
X110746D01*
Y70943D01*
G36*
X110746Y70943D02*
X112746D01*
Y72943D01*
X110746D01*
Y70943D01*
G37*
X120746Y60943D02*
X122746D01*
Y62943D01*
X120746D01*
Y60943D01*
G36*
X120746Y60943D02*
X122746D01*
Y62943D01*
X120746D01*
Y60943D01*
G37*
Y70943D02*
X122746D01*
Y72943D01*
X120746D01*
Y70943D01*
G36*
X120746Y70943D02*
X122746D01*
Y72943D01*
X120746D01*
Y70943D01*
G37*
X130746Y60943D02*
X132746D01*
Y62943D01*
X130746D01*
Y60943D01*
G36*
X130746Y60943D02*
X132746D01*
Y62943D01*
X130746D01*
Y60943D01*
G37*
Y70943D02*
X132746D01*
Y72943D01*
X130746D01*
Y70943D01*
G36*
X130746Y70943D02*
X132746D01*
Y72943D01*
X130746D01*
Y70943D01*
G37*
X140746Y60943D02*
X142746D01*
Y62943D01*
X140746D01*
Y60943D01*
G36*
X140746Y60943D02*
X142746D01*
Y62943D01*
X140746D01*
Y60943D01*
G37*
Y70943D02*
X142746D01*
Y72943D01*
X140746D01*
Y70943D01*
G36*
X140746Y70943D02*
X142746D01*
Y72943D01*
X140746D01*
Y70943D01*
G37*
X150746Y60943D02*
X152746D01*
Y62943D01*
X150746D01*
Y60943D01*
G36*
X150746Y60943D02*
X152746D01*
Y62943D01*
X150746D01*
Y60943D01*
G37*
Y70943D02*
X152746D01*
Y72943D01*
X150746D01*
Y70943D01*
G36*
X150746Y70943D02*
X152746D01*
Y72943D01*
X150746D01*
Y70943D01*
G37*
X376904Y161317D02*
Y168317D01*
X374904D01*
Y161317D01*
X376904D01*
G36*
X376904Y161317D02*
Y168317D01*
X374904D01*
Y161317D01*
X376904D01*
G37*
Y171317D02*
Y178317D01*
X374904D01*
Y171317D01*
X376904D01*
G36*
X376904Y171317D02*
Y178317D01*
X374904D01*
Y171317D01*
X376904D01*
G37*
Y181317D02*
Y188317D01*
X374904D01*
Y181317D01*
X376904D01*
G36*
X376904Y181317D02*
Y188317D01*
X374904D01*
Y181317D01*
X376904D01*
G37*
D02*
D12*
X282061Y201136D02*
G75*
G03*
Y201923I0J394D01*
G01*
G75*
G03*
Y201136I0J-394D01*
G01*
D02*
D13*
X55762Y200014D02*
X52762Y203014D01*
Y200014D01*
X55762D01*
Y203014D01*
X52762Y200014D01*
X55762Y203163D02*
X52762D01*
X63242Y200163D02*
X60242Y203163D01*
Y200163D01*
X63242D01*
Y203163D01*
X60242Y200163D01*
X63242Y203163D02*
X60242D01*
X68360Y200163D02*
X71360Y203163D01*
X68360D02*
X71360Y200163D01*
Y203163D01*
X68360D01*
Y200163D01*
X71360D01*
X76234Y200014D02*
X79234Y203014D01*
X76234D01*
Y200014D01*
X79234D01*
Y203014D01*
Y200014D02*
X76234Y203014D01*
X98281Y199620D02*
X95281Y202620D01*
Y199620D01*
X98281D01*
Y202620D01*
X95281Y199620D01*
X98281Y202770D02*
X95281D01*
X105762Y199770D02*
X102762Y202770D01*
Y199770D01*
X105762D01*
Y202770D01*
X102762Y199770D01*
X105762Y202770D02*
X102762D01*
X110880Y199770D02*
X113880Y202770D01*
X110880D02*
X113880Y199770D01*
Y202770D01*
X110880D01*
Y199770D01*
X113880D01*
X118754Y199620D02*
X121754Y202620D01*
X118754D01*
Y199620D01*
X121754D01*
Y202620D01*
Y199620D02*
X118754Y202620D01*
X380348Y55219D02*
Y49719D01*
X386348D01*
X380348Y65219D02*
Y59219D01*
Y69219D02*
Y74719D01*
X386348D01*
X380548Y65491D02*
G75*
G03*
Y58946I7300J-3272D01*
G01*
Y65491D02*
G75*
G03*
Y58946I7300J-3272D01*
G01*
X382568Y56209D02*
G75*
G03*
X386209Y54388I5281J6010D01*
G01*
X382568Y56209D02*
G75*
G03*
X386209Y54388I5281J6010D01*
G01*
X382723Y66217D02*
G75*
G03*
Y58220I5125J-3998D01*
G01*
X386209Y70049D02*
G75*
G03*
X382568Y68228I1640J-7830D01*
G01*
X386209Y70049D02*
G75*
G03*
X382568Y68228I1640J-7830D01*
G01*
X392974Y58220D02*
G75*
G03*
Y66217I-5125J3998D01*
G01*
X0Y0D02*
M02*
