G04 DesignSpark PCB Gerber Version 12.0 Build 5942*
%FSLAX35Y35*%
%MOIN*%
%ADD97O,0.07000X0.13000*%
%ADD87O,0.08050X0.15101*%
%ADD96R,0.07000X0.13000*%
%ADD82R,0.14780X0.95488*%
%ADD98R,0.08874X0.08874*%
%ADD90O,0.13000X0.07000*%
%ADD92O,0.15101X0.08050*%
%ADD85O,0.11400X0.08087*%
%ADD94O,0.12811X0.08087*%
%ADD95C,0.05000*%
%ADD91C,0.08000*%
%ADD89C,0.08874*%
%ADD86C,0.09000*%
%ADD81O,0.12811X0.12811*%
%ADD88R,0.08874X0.08874*%
%ADD93R,0.09000X0.09000*%
%ADD83C,0.14780*%
%ADD84R,0.24622X0.16748*%
X0Y0D02*
D02*
D81*
X364620Y43321D03*
Y63006D03*
Y82691D03*
D02*
D82*
X338045Y155014D03*
D02*
D83*
X130959Y94896D03*
Y159069D03*
X299069Y162612D03*
X299463Y70880D03*
D02*
D84*
X338400Y151785D03*
D02*
D85*
X323439Y117376D03*
Y127376D03*
Y137376D03*
Y147376D03*
Y157376D03*
Y167376D03*
Y177376D03*
Y187376D03*
X353439Y117376D03*
Y127376D03*
Y137376D03*
Y147376D03*
Y157376D03*
Y167376D03*
Y177376D03*
Y187376D03*
D02*
D86*
X111746Y61943D03*
Y71943D03*
X121746Y61943D03*
Y71943D03*
X131746Y61943D03*
Y71943D03*
X141746Y61943D03*
Y71943D03*
X151746Y61943D03*
Y71943D03*
X231549Y60053D03*
X282017Y183260D03*
D02*
D87*
X261116Y51726D03*
X281116D03*
D02*
D88*
X56267Y118587D03*
D02*
D89*
Y178587D03*
X66267Y118587D03*
Y178587D03*
X76267Y118587D03*
Y178587D03*
X86267Y118587D03*
Y178587D03*
X96267Y118587D03*
Y178587D03*
X106267Y118587D03*
Y178587D03*
X116267Y118587D03*
Y178587D03*
X126267Y118587D03*
Y178587D03*
X136267Y118587D03*
Y178587D03*
X146267Y118587D03*
Y178587D03*
X156267Y118587D03*
Y178587D03*
X166267Y118587D03*
Y178587D03*
X176267Y118587D03*
Y178587D03*
X186267Y118587D03*
Y178587D03*
X196267Y118587D03*
Y178587D03*
X252017Y183260D03*
Y193259D03*
X262017Y183260D03*
Y193259D03*
X272017Y183260D03*
Y193259D03*
D02*
D90*
X381904Y164817D03*
Y174817D03*
Y184817D03*
D02*
D91*
X200683Y211608D03*
X210683D03*
X220683D03*
X230683D03*
X327455Y49030D03*
Y74030D03*
X347455Y49030D03*
Y74030D03*
D02*
D92*
X50506Y54581D03*
Y74581D03*
X382474Y120998D03*
Y140998D03*
D02*
D93*
X282017Y193259D03*
D02*
D94*
X382848Y52219D03*
Y62219D03*
Y72219D03*
D02*
D95*
X392848Y52219D03*
Y72219D03*
D02*
D96*
X54187Y201589D03*
X96707Y201195D03*
D02*
D97*
X62061Y201589D03*
X69935D03*
X77809D03*
X104581Y201195D03*
X112455D03*
X120329D03*
D02*
D98*
X211549Y60053D03*
X221549D03*
X0Y0D02*
M02*
