G04 DesignSpark PCB Gerber Version 12.0 Build 5942*
%FSLAX35Y35*%
%MOIN*%
%ADD79O,0.06000X0.12000*%
%ADD28O,0.07050X0.14101*%
%ADD78R,0.06000X0.12000*%
%ADD23R,0.13780X0.94488*%
%ADD80R,0.07874X0.07874*%
%ADD10C,0.00500*%
%ADD19C,0.01000*%
%ADD20C,0.02000*%
%ADD71C,0.03000*%
%ADD21C,0.03150*%
%ADD70C,0.04000*%
%ADD73O,0.12000X0.06000*%
%ADD75O,0.14101X0.07050*%
%ADD26O,0.10400X0.07087*%
%ADD77O,0.11811X0.07087*%
%ADD22O,0.11811X0.11811*%
%ADD74C,0.07000*%
%ADD99C,0.07087*%
%ADD72C,0.07874*%
%ADD27C,0.08000*%
%ADD24C,0.13780*%
%ADD29R,0.07874X0.07874*%
%ADD76R,0.08000X0.08000*%
%ADD25R,0.23622X0.15748*%
X0Y0D02*
D02*
D10*
X26734Y205211D02*
Y46549D01*
G75*
G03*
X38045Y35238I11311J0D01*
G01*
X108952D01*
X106487Y37702D01*
G75*
G02*
X104799Y41746I3999J4044D01*
G01*
Y52006D01*
G75*
G02*
X100980Y56367I6947J9936D01*
G01*
G75*
G02*
X98057Y57944I1120J5576D01*
G01*
X93495Y62506D01*
G75*
G02*
X91807Y66549I3999J4044D01*
G01*
Y90572D01*
X91595Y90783D01*
X54581D01*
G75*
G02*
X50537Y92472I0J5687D01*
G01*
X41920Y101088D01*
G75*
G02*
X40232Y105132I3999J4044D01*
G01*
Y168900D01*
G75*
G02*
X37545Y170424I1356J5523D01*
G01*
X34440Y173529D01*
G75*
G02*
X32752Y177573I3999J4044D01*
G01*
Y209856D01*
G75*
G02*
X34440Y213900I5687J0D01*
G01*
X37015Y216475D01*
G75*
G03*
X26734Y205211I1030J-11264D01*
G01*
X41006Y64581D02*
G75*
G02*
X46982Y86230I5976J10000D01*
G01*
X54030D01*
G75*
G02*
X60006Y64581I0J-11650D01*
G01*
G75*
G02*
X54030Y42931I-5976J-10000D01*
G01*
X46982D01*
G75*
G02*
X41006Y64581I0J11650D01*
G01*
X26984D02*
G36*
X26984Y64581D02*
Y44185D01*
G75*
G03*
X35681Y35488I11061J2365D01*
G01*
X108702D01*
X106487Y37702D01*
G75*
G02*
X104799Y41746I3999J4044D01*
G01*
Y52006D01*
G75*
G02*
X100980Y56367I6944J9933D01*
G01*
G75*
G02*
X98057Y57944I1119J5574D01*
G01*
X93495Y62506D01*
G75*
G02*
X92159Y64581I3999J4044D01*
G01*
X60006D01*
G75*
G02*
X65679Y54581I-5976J-10000D01*
G01*
G75*
G02*
X54030Y42931I-11650J0D01*
G01*
X46982D01*
G75*
G02*
X35333Y54581I0J11650D01*
G01*
G75*
G02*
X41006Y64581I11650J0D01*
G01*
X26984D01*
G37*
Y207576D02*
G36*
X26984Y207576D02*
Y64581D01*
X41006D01*
G75*
G02*
X35333Y74581I5976J10000D01*
G01*
G75*
G02*
X46982Y86230I11650J0D01*
G01*
X54030D01*
G75*
G02*
X65679Y74581I0J-11650D01*
G01*
G75*
G02*
X60006Y64581I-11650J0D01*
G01*
X92159D01*
G75*
G02*
X91807Y66549I5335J1969D01*
G01*
Y90572D01*
X91595Y90783D01*
X54581D01*
G75*
G02*
X50537Y92472I0J5687D01*
G01*
X41920Y101088D01*
G75*
G02*
X40232Y105132I3999J4044D01*
G01*
Y168900D01*
G75*
G02*
X37545Y170424I1356J5522D01*
G01*
X34440Y173529D01*
G75*
G02*
X32752Y177573I3999J4044D01*
G01*
Y209856D01*
G75*
G02*
X34440Y213900I5687J0D01*
G01*
X36765Y216225D01*
X35470D01*
G75*
G03*
X26984Y207576I2575J-11015D01*
G01*
G37*
X38045Y220959D02*
X385014D01*
G75*
G02*
X400762Y205211I0J-15748D01*
G01*
Y46549D01*
G75*
G02*
X385014Y30801I-15748J0D01*
G01*
X38045D01*
G75*
G02*
X22297Y46549I0J15748D01*
G01*
Y205211D01*
G75*
G02*
X38045Y220959I15748J0D01*
G01*
X44126Y207501D02*
Y195583D01*
G75*
G02*
X49937Y195379I2580J-9349D01*
G01*
Y208500D01*
X45125D01*
X44126Y207501D01*
G36*
X44126Y207501D02*
Y195583D01*
G75*
G02*
X49937Y195379I2580J-9349D01*
G01*
Y208500D01*
X45125D01*
X44126Y207501D01*
G37*
X51606Y149937D02*
Y130648D01*
X59919D01*
G75*
G02*
X58449Y134266I3717J3618D01*
G01*
Y148770D01*
G75*
G02*
X51606Y149937I-1900J9511D01*
G01*
G36*
X51606Y149937D02*
Y130648D01*
X59919D01*
G75*
G02*
X58449Y134266I3717J3618D01*
G01*
Y148770D01*
G75*
G02*
X51606Y149937I-1900J9511D01*
G01*
G37*
X52568Y106526D02*
X56936Y102157D01*
X63999D01*
X62600Y103557D01*
G75*
G02*
X61128Y106526I3668J3668D01*
G01*
X52568D01*
G36*
X52568Y106526D02*
X56936Y102157D01*
X63999D01*
X62600Y103557D01*
G75*
G02*
X61128Y106526I3668J3668D01*
G01*
X52568D01*
G37*
X60307Y167223D02*
G75*
G02*
X66213Y159102I-3758J-8942D01*
G01*
X67284Y158032D01*
G75*
G02*
X68823Y154344I-3648J-3687D01*
G01*
Y148757D01*
X71385Y151320D01*
G75*
G02*
X75124Y152839I3668J-3668D01*
G01*
X117298D01*
G75*
G02*
X118000Y166651I13660J6230D01*
G01*
G75*
G02*
X116267Y166526I-1733J11934D01*
G01*
G75*
G02*
X111267Y167611I0J12061D01*
G01*
G75*
G02*
X101267I-5000J10976D01*
G01*
G75*
G02*
X91267I-5000J10976D01*
G01*
G75*
G02*
X81267I-5000J10976D01*
G01*
G75*
G02*
X66267Y171844I-5000J10976D01*
G01*
G75*
G02*
X60307Y167223I-10000J6743D01*
G01*
G36*
X60307Y167223D02*
G75*
G02*
X66213Y159102I-3758J-8942D01*
G01*
X67284Y158032D01*
G75*
G02*
X68823Y154344I-3648J-3687D01*
G01*
Y148757D01*
X71385Y151320D01*
G75*
G02*
X75124Y152839I3668J-3668D01*
G01*
X117298D01*
G75*
G02*
X118000Y166651I13660J6230D01*
G01*
G75*
G02*
X116267Y166526I-1733J11934D01*
G01*
G75*
G02*
X111267Y167611I0J12061D01*
G01*
G75*
G02*
X101267I-5000J10976D01*
G01*
G75*
G02*
X91267I-5000J10976D01*
G01*
G75*
G02*
X81267I-5000J10976D01*
G01*
G75*
G02*
X66267Y171844I-5000J10976D01*
G01*
G75*
G02*
X60307Y167223I-10000J6743D01*
G01*
G37*
X80806Y142465D02*
G75*
G02*
X81996Y137809I-8509J-4656D01*
G01*
G75*
G02*
X81721Y135516I-9699J1D01*
G01*
X84181D01*
G75*
G02*
X95483Y139516I8195J-5187D01*
G01*
G75*
G02*
X96792Y142465I5160J-526D01*
G01*
X80806D01*
G36*
X80806Y142465D02*
G75*
G02*
X81996Y137809I-8509J-4656D01*
G01*
G75*
G02*
X81721Y135516I-9699J1D01*
G01*
X84181D01*
G75*
G02*
X95483Y139516I8195J-5187D01*
G01*
G75*
G02*
X96792Y142465I5160J-526D01*
G01*
X80806D01*
G37*
X85580Y190628D02*
G75*
G02*
X91267Y189563I688J-12041D01*
G01*
G75*
G02*
X96267Y190648I5000J-10976D01*
G01*
G75*
G02*
X96409Y190647I4J-12049D01*
G01*
G75*
G02*
X94300Y193945I8172J7548D01*
G01*
X92457D01*
Y207713D01*
X88485D01*
G75*
G02*
X88933Y204589I-10676J-3124D01*
G01*
Y198589D01*
G75*
G02*
X85580Y190628I-11124J0D01*
G01*
G36*
X85580Y190628D02*
G75*
G02*
X91267Y189563I688J-12041D01*
G01*
G75*
G02*
X96267Y190648I5000J-10976D01*
G01*
G75*
G02*
X96409Y190647I4J-12049D01*
G01*
G75*
G02*
X94300Y193945I8172J7548D01*
G01*
X92457D01*
Y207713D01*
X88485D01*
G75*
G02*
X88933Y204589I-10676J-3124D01*
G01*
Y198589D01*
G75*
G02*
X85580Y190628I-11124J0D01*
G01*
G37*
X109337Y106923D02*
X109804Y106457D01*
G75*
G02*
X111343Y102770I-3648J-3687D01*
G01*
Y86697D01*
X118381D01*
G75*
G02*
X122334Y107185I12577J8199D01*
G01*
G75*
G02*
X121267Y107611I3929J11400D01*
G01*
G75*
G02*
X111267I-5000J10976D01*
G01*
G75*
G02*
X109337Y106923I-4999J10976D01*
G01*
G36*
X109337Y106923D02*
X109804Y106457D01*
G75*
G02*
X111343Y102770I-3648J-3687D01*
G01*
Y86697D01*
X118381D01*
G75*
G02*
X122334Y107185I12577J8199D01*
G01*
G75*
G02*
X121267Y107611I3929J11400D01*
G01*
G75*
G02*
X111267I-5000J10976D01*
G01*
G75*
G02*
X109337Y106923I-4999J10976D01*
G01*
G37*
X111343Y131441D02*
Y129597D01*
G75*
G02*
X121267Y129563I4925J-11009D01*
G01*
G75*
G02*
X131267I5000J-10976D01*
G01*
G75*
G02*
X136247Y130648I5000J-10976D01*
G01*
G75*
G02*
X136338Y131441I9672J-712D01*
G01*
X111343D01*
G36*
X111343Y131441D02*
Y129597D01*
G75*
G02*
X121267Y129563I4925J-11009D01*
G01*
G75*
G02*
X131267I5000J-10976D01*
G01*
G75*
G02*
X136247Y130648I5000J-10976D01*
G01*
G75*
G02*
X136338Y131441I9672J-712D01*
G01*
X111343D01*
G37*
X131085Y195358D02*
X167110D01*
Y199226D01*
G75*
G02*
X168649Y202914I5187J0D01*
G01*
X170972Y205237D01*
G75*
G02*
X171807Y205921I3688J-3648D01*
G01*
X131318D01*
G75*
G02*
X131453Y204195I-10989J-1726D01*
G01*
Y198195D01*
G75*
G02*
X131085Y195358I-11124J0D01*
G01*
G36*
X131085Y195358D02*
X167110D01*
Y199226D01*
G75*
G02*
X168649Y202914I5187J0D01*
G01*
X170972Y205237D01*
G75*
G02*
X171807Y205921I3688J-3648D01*
G01*
X131318D01*
G75*
G02*
X131453Y204195I-10989J-1726D01*
G01*
Y198195D01*
G75*
G02*
X131085Y195358I-11124J0D01*
G01*
G37*
X141352Y84061D02*
G75*
G02*
X146638Y83036I394J-12118D01*
G01*
Y99834D01*
X143805Y102667D01*
G75*
G02*
X141352Y84061I-12846J-7771D01*
G01*
G36*
X141352Y84061D02*
G75*
G02*
X146638Y83036I394J-12118D01*
G01*
Y99834D01*
X143805Y102667D01*
G75*
G02*
X141352Y84061I-12846J-7771D01*
G01*
G37*
X154484Y106659D02*
X155473Y105670D01*
G75*
G02*
X157012Y101982I-3648J-3687D01*
G01*
Y82864D01*
G75*
G02*
X162874Y67130I-5266J-10921D01*
G01*
X176165D01*
Y104952D01*
X174454Y106663D01*
G75*
G02*
X171267Y107611I1813J11924D01*
G01*
G75*
G02*
X161267I-5000J10976D01*
G01*
G75*
G02*
X156267Y106526I-5000J10976D01*
G01*
G75*
G02*
X154484Y106659I1J12062D01*
G01*
G36*
X154484Y106659D02*
X155473Y105670D01*
G75*
G02*
X157012Y101982I-3648J-3687D01*
G01*
Y82864D01*
G75*
G02*
X162874Y67130I-5266J-10921D01*
G01*
X176165D01*
Y104952D01*
X174454Y106663D01*
G75*
G02*
X171267Y107611I1813J11924D01*
G01*
G75*
G02*
X161267I-5000J10976D01*
G01*
G75*
G02*
X156267Y106526I-5000J10976D01*
G01*
G75*
G02*
X154484Y106659I1J12062D01*
G01*
G37*
X164560Y166647D02*
G75*
G02*
X165837Y156776I-7618J-6004D01*
G01*
X200464D01*
X202150Y158461D01*
Y168057D01*
G75*
G02*
X191267Y167611I-5882J10530D01*
G01*
G75*
G02*
X181267I-5000J10976D01*
G01*
G75*
G02*
X171267I-5000J10976D01*
G01*
G75*
G02*
X166267Y166526I-5000J10976D01*
G01*
G75*
G02*
X164560Y166647I-1J12061D01*
G01*
G36*
X164560Y166647D02*
G75*
G02*
X165837Y156776I-7618J-6004D01*
G01*
X200464D01*
X202150Y158461D01*
Y168057D01*
G75*
G02*
X191267Y167611I-5882J10530D01*
G01*
G75*
G02*
X181267I-5000J10976D01*
G01*
G75*
G02*
X171267I-5000J10976D01*
G01*
G75*
G02*
X166267Y166526I-5000J10976D01*
G01*
G75*
G02*
X164560Y166647I-1J12061D01*
G01*
G37*
X185136Y134591D02*
G75*
G02*
X186300Y130648I-8508J-4656D01*
G01*
G75*
G02*
X191267Y129563I-33J-12061D01*
G01*
G75*
G02*
X196244Y130648I5000J-10976D01*
G01*
Y134480D01*
X196133Y134591D01*
X185136D01*
G36*
X185136Y134591D02*
G75*
G02*
X186300Y130648I-8508J-4656D01*
G01*
G75*
G02*
X191267Y129563I-33J-12061D01*
G01*
G75*
G02*
X196244Y130648I5000J-10976D01*
G01*
Y134480D01*
X196133Y134591D01*
X185136D01*
G37*
X201894Y107919D02*
Y72114D01*
X206362D01*
Y106589D01*
G75*
G02*
X207901Y110276I5187J0D01*
G01*
X208594Y110969D01*
X207337D01*
G75*
G02*
X205802Y111201I0J5187D01*
G01*
G75*
G02*
X201894Y107919I-9535J7386D01*
G01*
G36*
X201894Y107919D02*
Y72114D01*
X206362D01*
Y106589D01*
G75*
G02*
X207901Y110276I5187J0D01*
G01*
X208594Y110969D01*
X207337D01*
G75*
G02*
X205802Y111201I0J5187D01*
G01*
G75*
G02*
X201894Y107919I-9535J7386D01*
G01*
G37*
X216736Y104440D02*
Y72114D01*
X233610D01*
Y64881D01*
G75*
G02*
Y55225I-2061J-4828D01*
G01*
Y47992D01*
X227236D01*
Y43496D01*
X250460D01*
G75*
G02*
X249467Y48203I10656J4707D01*
G01*
Y55250D01*
G75*
G02*
X272766I11650J0D01*
G01*
Y48203D01*
G75*
G02*
X271772Y43496I-11650J0D01*
G01*
X280308D01*
G75*
G02*
X276341Y48203I808J4707D01*
G01*
Y55250D01*
G75*
G02*
X285892I4776J0D01*
G01*
Y48203D01*
G75*
G02*
X281924Y43496I-4776J0D01*
G01*
X317232D01*
G75*
G02*
X330390Y60277I10222J5533D01*
G01*
Y62782D01*
G75*
G02*
X315831Y74030I-2935J11247D01*
G01*
G75*
G02*
X330390Y85277I11624J0D01*
G01*
Y95114D01*
X326589D01*
G75*
G02*
X322545Y96802I0J5687D01*
G01*
X321313Y98035D01*
G75*
G02*
X304653Y97583I-8464J4735D01*
G01*
X274266D01*
G75*
G02*
X270578Y99122I0J5187D01*
G01*
X268256Y101444D01*
G75*
G02*
X266717Y105069I3648J3687D01*
G01*
G75*
G02*
X250450Y104866I-8199J5181D01*
G01*
X217162D01*
X216736Y104440D01*
X284449Y70880D02*
G75*
G02*
X314476I15014J0D01*
G01*
G75*
G02*
X284449I-15014J0D01*
G01*
X227236Y47992D02*
G36*
X227236Y47992D02*
Y43746D01*
X250353D01*
G75*
G02*
X249467Y48203I10769J4458D01*
G01*
Y55250D01*
G75*
G02*
X272766I11650J0D01*
G01*
Y48203D01*
G75*
G02*
X271880Y43746I-11655J1D01*
G01*
X279400D01*
G75*
G02*
X276341Y48202I1716J4456D01*
G01*
Y48203D01*
Y55250D01*
G75*
G02*
X285892I4776J0D01*
G01*
Y48203D01*
Y48202D01*
G75*
G02*
X282832Y43746I-4775J0D01*
G01*
X317101D01*
G75*
G02*
X315831Y49030I10354J5283D01*
G01*
G75*
G02*
X330140Y60339I11624J0D01*
G01*
Y62720D01*
G75*
G02*
X316265Y70880I-2685J11309D01*
G01*
X314476D01*
G75*
G02*
X284449I-15014J0D01*
G01*
X233610D01*
Y64881D01*
G75*
G02*
X236799Y60053I-2061J-4828D01*
G01*
G75*
G02*
X233610Y55225I-5250J0D01*
G01*
Y47992D01*
X227236D01*
G37*
X216986Y104690D02*
G36*
X216986Y104690D02*
Y72114D01*
X233610D01*
Y70880D01*
X284449D01*
G75*
G02*
X314476I15014J0D01*
G01*
X316265D01*
G75*
G02*
X315831Y74030I11189J3149D01*
G01*
G75*
G02*
X330140Y85339I11624J0D01*
G01*
Y95114D01*
X326589D01*
G75*
G02*
X322545Y96802I0J5687D01*
G01*
X321313Y98035D01*
G75*
G02*
X304653Y97583I-8464J4735D01*
G01*
X274266D01*
G75*
G02*
X270578Y99122I2J5190D01*
G01*
X268256Y101444D01*
G75*
G02*
X266726Y104819I3646J3687D01*
G01*
X266554D01*
G75*
G02*
X250482I-8036J5431D01*
G01*
X217115D01*
X216986Y104690D01*
G37*
X228665Y148595D02*
Y137737D01*
G75*
G02*
X232700Y132546I-5187J-8195D01*
G01*
G75*
G02*
X233124Y132563I424J-5172D01*
G01*
X272375D01*
G75*
G02*
X272066Y139033I8976J3671D01*
G01*
G75*
G02*
X271835Y140565I4956J1532D01*
G01*
Y155132D01*
G75*
G02*
X272085Y156726I5187J0D01*
G01*
G75*
G02*
X271307Y159681I8874J3917D01*
G01*
X262236D01*
Y154344D01*
G75*
G02*
X260548Y150301I-5687J0D01*
G01*
X257050Y146802D01*
G75*
G02*
X253006Y145114I-4044J3999D01*
G01*
X234502D01*
G75*
G02*
X230458Y146802I0J5687D01*
G01*
X228665Y148595D01*
G36*
X228665Y148595D02*
Y137737D01*
G75*
G02*
X232700Y132546I-5187J-8195D01*
G01*
G75*
G02*
X233124Y132563I424J-5172D01*
G01*
X272375D01*
G75*
G02*
X272066Y139033I8976J3671D01*
G01*
G75*
G02*
X271835Y140565I4956J1532D01*
G01*
Y155132D01*
G75*
G02*
X272085Y156726I5187J0D01*
G01*
G75*
G02*
X271307Y159681I8874J3917D01*
G01*
X262236D01*
Y154344D01*
G75*
G02*
X260548Y150301I-5687J0D01*
G01*
X257050Y146802D01*
G75*
G02*
X253006Y145114I-4044J3999D01*
G01*
X234502D01*
G75*
G02*
X230458Y146802I0J5687D01*
G01*
X228665Y148595D01*
G37*
X231218Y216522D02*
G75*
G02*
X231311Y216317I-10541J-4919D01*
G01*
G75*
G02*
Y206900I-628J-4708D01*
G01*
G75*
G02*
X231255Y206776I-10635J4738D01*
G01*
X260486D01*
G75*
G02*
X264174Y205237I0J-5187D01*
G01*
X264309Y205101D01*
G75*
G02*
X267017Y204235I-2292J-11842D01*
G01*
G75*
G02*
X282876Y198510I5000J-10976D01*
G01*
X287266D01*
Y194189D01*
G75*
G02*
X292716Y188963I-5248J-10930D01*
G01*
G75*
G02*
X310848Y191448I9502J-1942D01*
G01*
G75*
G02*
X321781Y199043I10933J-4072D01*
G01*
X325096D01*
G75*
G02*
X329906Y198006I0J-11667D01*
G01*
Y203508D01*
X346185D01*
Y197613D01*
G75*
G02*
X351781Y199043I5597J-10238D01*
G01*
X355096D01*
G75*
G02*
X358055Y198662I0J-11667D01*
G01*
Y204952D01*
X356763Y206244D01*
X311777D01*
G75*
G02*
X292520Y207888I-9559J1644D01*
G01*
G75*
G02*
X297800Y216522I9699J0D01*
G01*
X231218D01*
G36*
X231218Y216522D02*
G75*
G02*
X231311Y216317I-10541J-4919D01*
G01*
G75*
G02*
Y206900I-628J-4708D01*
G01*
G75*
G02*
X231255Y206776I-10635J4738D01*
G01*
X260486D01*
G75*
G02*
X264174Y205237I0J-5187D01*
G01*
X264309Y205101D01*
G75*
G02*
X267017Y204235I-2292J-11842D01*
G01*
G75*
G02*
X282876Y198510I5000J-10976D01*
G01*
X287266D01*
Y194189D01*
G75*
G02*
X292716Y188963I-5248J-10930D01*
G01*
G75*
G02*
X310848Y191448I9502J-1942D01*
G01*
G75*
G02*
X321781Y199043I10933J-4072D01*
G01*
X325096D01*
G75*
G02*
X329906Y198006I0J-11667D01*
G01*
Y203508D01*
X346185D01*
Y197613D01*
G75*
G02*
X351781Y199043I5597J-10238D01*
G01*
X355096D01*
G75*
G02*
X358055Y198662I0J-11667D01*
G01*
Y204952D01*
X356763Y206244D01*
X311777D01*
G75*
G02*
X292520Y207888I-9559J1644D01*
G01*
G75*
G02*
X297800Y216522I9699J0D01*
G01*
X231218D01*
G37*
X273993Y122189D02*
X275552Y120630D01*
G75*
G02*
X277091Y116943I-3648J-3687D01*
G01*
Y107957D01*
X304653D01*
G75*
G02*
X311258Y112337I8195J-5187D01*
G01*
G75*
G02*
X311153Y122189I10522J5039D01*
G01*
X273993D01*
G36*
X273993Y122189D02*
X275552Y120630D01*
G75*
G02*
X277091Y116943I-3648J-3687D01*
G01*
Y107957D01*
X304653D01*
G75*
G02*
X311258Y112337I8195J-5187D01*
G01*
G75*
G02*
X311153Y122189I10522J5039D01*
G01*
X273993D01*
G37*
X290330Y132563D02*
X311153D01*
G75*
G02*
X317033Y148033I10628J4813D01*
G01*
G75*
G02*
X321781Y152169I4748J-657D01*
G01*
X325096D01*
G75*
G02*
X325339Y152163I-4J-4793D01*
G01*
Y152589D01*
G75*
G02*
X325096Y152583I-246J4786D01*
G01*
X321781D01*
G75*
G02*
X317033Y156719I0J4793D01*
G01*
G75*
G02*
X313645Y159014I4748J10657D01*
G01*
G75*
G02*
X296620Y147799I-14576J3598D01*
G01*
G75*
G02*
X290972Y134995I-8969J-3691D01*
G01*
G75*
G02*
X290330Y132563I-9619J1239D01*
G01*
G36*
X290330Y132563D02*
X311153D01*
G75*
G02*
X317033Y148033I10628J4813D01*
G01*
G75*
G02*
X321781Y152169I4748J-657D01*
G01*
X325096D01*
G75*
G02*
X325339Y152163I-4J-4793D01*
G01*
Y152589D01*
G75*
G02*
X325096Y152583I-246J4786D01*
G01*
X321781D01*
G75*
G02*
X317033Y156719I0J4793D01*
G01*
G75*
G02*
X313645Y159014I4748J10657D01*
G01*
G75*
G02*
X296620Y147799I-14576J3598D01*
G01*
G75*
G02*
X290972Y134995I-8969J-3691D01*
G01*
G75*
G02*
X290330Y132563I-9619J1239D01*
G01*
G37*
X329737Y35238D02*
X353153D01*
G75*
G02*
X350784Y45641I11466J8082D01*
G01*
G75*
G02*
X342705Y49030I-3329J3388D01*
G01*
G75*
G02*
X352150Y49749I4750J0D01*
G01*
G75*
G02*
X354622Y53163I12469J-6428D01*
G01*
G75*
G02*
Y72848I9997J9843D01*
G01*
G75*
G02*
X364620Y96720I9998J9843D01*
G01*
G75*
G02*
X378611Y83734I0J-14030D01*
G01*
G75*
G02*
X380486Y83886I1875J-11517D01*
G01*
X385211D01*
G75*
G02*
X391231Y82213I0J-11667D01*
G01*
G75*
G02*
X396325Y81727I1617J-9994D01*
G01*
Y115606D01*
G75*
G02*
X385998Y109348I-10327J5392D01*
G01*
X378951D01*
G75*
G02*
X371102Y112390I0J11650D01*
G01*
G75*
G02*
X355543Y100808I-7859J-5683D01*
G01*
X354294Y99558D01*
G75*
G02*
X352833Y98491I-4044J3999D01*
G01*
X351122Y96780D01*
G75*
G02*
X347027Y95114I-4022J4022D01*
G01*
X341764D01*
Y50801D01*
G75*
G02*
X340076Y46757I-5687J0D01*
G01*
X338381Y45063D01*
G75*
G02*
X332619Y38615I-10926J3967D01*
G01*
G75*
G02*
X331454Y36954I-5164J2382D01*
G01*
X329737Y35238D01*
X342705Y74030D02*
G75*
G02*
X352205I4750J0D01*
G01*
G75*
G02*
X342705I-4750J0D01*
G01*
X331454Y36954D02*
G36*
X331454Y36954D02*
X329987Y35488D01*
X352981D01*
G75*
G02*
X350591Y43320I11637J7832D01*
G01*
G75*
G02*
X350784Y45641I14029J0D01*
G01*
G75*
G02*
X342705Y49030I-3329J3388D01*
G01*
G75*
G02*
X352150Y49749I4750J0D01*
G01*
G75*
G02*
X354622Y53163I12464J-6424D01*
G01*
G75*
G02*
X350590Y63006I9996J9843D01*
G01*
G75*
G02*
X354622Y72848I14029J0D01*
G01*
G75*
G02*
X353583Y74030I9999J9843D01*
G01*
X352205D01*
G75*
G02*
X342705I-4750J0D01*
G01*
X341764D01*
Y50801D01*
G75*
G02*
X340076Y46757I-5687J0D01*
G01*
X338381Y45063D01*
G75*
G02*
X332619Y38615I-10928J3968D01*
G01*
G75*
G02*
X331454Y36954I-5172J2389D01*
G01*
G37*
X341764Y95114D02*
G36*
X341764Y95114D02*
Y74030D01*
X342705D01*
G75*
G02*
X352205I4750J0D01*
G01*
X353583D01*
G75*
G02*
X350591Y82691I11037J8661D01*
G01*
G75*
G02*
X364620Y96720I14030J0D01*
G01*
G75*
G02*
X378611Y83734I0J-14029D01*
G01*
G75*
G02*
X380486Y83886I1872J-11478D01*
G01*
X385211D01*
G75*
G02*
X391231Y82213I1J-11665D01*
G01*
G75*
G02*
X396075Y81815I1617J-9993D01*
G01*
Y115152D01*
G75*
G02*
X385998Y109348I-10077J5846D01*
G01*
X378951D01*
G75*
G02*
X371102Y112390I1J11652D01*
G01*
G75*
G02*
X372941Y106707I-7860J-5683D01*
G01*
G75*
G02*
X355543Y100808I-9699J0D01*
G01*
X354294Y99558D01*
G75*
G02*
X352833Y98491I-4046J4002D01*
G01*
X351122Y96780D01*
G75*
G02*
X347027Y95114I-4022J4022D01*
G01*
X341764D01*
G37*
X351461Y152593D02*
Y152159D01*
G75*
G02*
X351781Y152169I319J-4783D01*
G01*
X355096D01*
G75*
G02*
X359844Y148033I0J-4793D01*
G01*
G75*
G02*
X366580Y135311I-4748J-10657D01*
G01*
X371418Y130473D01*
G75*
G02*
X371728Y130138I-3648J-3689D01*
G01*
G75*
G02*
X372975Y130998I7222J-9141D01*
G01*
G75*
G02*
X368709Y146549I5976J10000D01*
G01*
G75*
G02*
X366248Y147941I1226J5041D01*
G01*
X362744Y151444D01*
G75*
G02*
X361205Y155132I3648J3687D01*
G01*
Y157435D01*
G75*
G02*
X359844Y156719I-6109J9941D01*
G01*
G75*
G02*
X355096Y152583I-4748J657D01*
G01*
X351781D01*
G75*
G02*
X351461Y152593I-2J4794D01*
G01*
G36*
X351461Y152593D02*
Y152159D01*
G75*
G02*
X351781Y152169I319J-4783D01*
G01*
X355096D01*
G75*
G02*
X359844Y148033I0J-4793D01*
G01*
G75*
G02*
X366580Y135311I-4748J-10657D01*
G01*
X371418Y130473D01*
G75*
G02*
X371728Y130138I-3648J-3689D01*
G01*
G75*
G02*
X372975Y130998I7222J-9141D01*
G01*
G75*
G02*
X368709Y146549I5976J10000D01*
G01*
G75*
G02*
X366248Y147941I1226J5041D01*
G01*
X362744Y151444D01*
G75*
G02*
X361205Y155132I3648J3687D01*
G01*
Y157435D01*
G75*
G02*
X359844Y156719I-6109J9941D01*
G01*
G75*
G02*
X355096Y152583I-4748J657D01*
G01*
X351781D01*
G75*
G02*
X351461Y152593I-2J4794D01*
G01*
G37*
X359907Y216522D02*
G75*
G02*
X362599Y215079I-996J-5091D01*
G01*
X366890Y210788D01*
G75*
G02*
X368429Y207100I-3648J-3687D01*
G01*
Y188563D01*
G75*
G02*
X378904Y195941I10474J-3746D01*
G01*
X384904D01*
G75*
G02*
X389776Y174817I0J-11124D01*
G01*
G75*
G02*
X384904Y153693I-4873J-10000D01*
G01*
X383720D01*
X384671Y152648D01*
X385998D01*
G75*
G02*
X396325Y146390I0J-11650D01*
G01*
Y205211D01*
G75*
G03*
X385014Y216522I-11311J0D01*
G01*
X359907D01*
G36*
X359907Y216522D02*
G75*
G02*
X362599Y215079I-996J-5091D01*
G01*
X366890Y210788D01*
G75*
G02*
X368429Y207100I-3648J-3687D01*
G01*
Y188563D01*
G75*
G02*
X378904Y195941I10474J-3746D01*
G01*
X384904D01*
G75*
G02*
X389776Y174817I0J-11124D01*
G01*
G75*
G02*
X384904Y153693I-4873J-10000D01*
G01*
X383720D01*
X384671Y152648D01*
X385998D01*
G75*
G02*
X396325Y146390I0J-11650D01*
G01*
Y205211D01*
G75*
G03*
X385014Y216522I-11311J0D01*
G01*
X359907D01*
G37*
X365638Y172376D02*
G75*
G02*
X365887Y171815I-10538J-5002D01*
G01*
G75*
G02*
X366890Y171024I-2685J-4439D01*
G01*
X368690Y169224D01*
G75*
G02*
X374031Y174817I10213J-4407D01*
G01*
G75*
G02*
X368429Y181071I4873J10000D01*
G01*
Y180400D01*
G75*
G02*
X368430Y180329I-5192J-64D01*
G01*
G75*
G02*
X366910Y176661I-5187J0D01*
G01*
X366729Y176480D01*
G75*
G02*
X365638Y172376I-11632J896D01*
G01*
G36*
X365638Y172376D02*
G75*
G02*
X365887Y171815I-10538J-5002D01*
G01*
G75*
G02*
X366890Y171024I-2685J-4439D01*
G01*
X368690Y169224D01*
G75*
G02*
X374031Y174817I10213J-4407D01*
G01*
G75*
G02*
X368429Y181071I4873J10000D01*
G01*
Y180400D01*
G75*
G02*
X368430Y180329I-5192J-64D01*
G01*
G75*
G02*
X366910Y176661I-5187J0D01*
G01*
X366729Y176480D01*
G75*
G02*
X365638Y172376I-11632J896D01*
G01*
G37*
X376087Y35238D02*
X385014D01*
G75*
G03*
X395562Y42465I0J11311D01*
G01*
G75*
G02*
X391231Y42224I-2714J9754D01*
G01*
G75*
G02*
X385211Y40551I-6020J9994D01*
G01*
X380486D01*
G75*
G02*
X378410Y40737I0J11668D01*
G01*
G75*
G02*
X376087Y35238I-13789J2583D01*
G01*
G36*
X376087Y35238D02*
X385014D01*
G75*
G03*
X395562Y42465I0J11311D01*
G01*
G75*
G02*
X391231Y42224I-2714J9754D01*
G01*
G75*
G02*
X385211Y40551I-6020J9994D01*
G01*
X380486D01*
G75*
G02*
X378410Y40737I0J11668D01*
G01*
G75*
G02*
X376087Y35238I-13789J2583D01*
G01*
G37*
D02*
D19*
X232804Y209487D02*
X234219Y208073D01*
X232804Y213730D02*
X234219Y215144D01*
X234024Y57578D02*
X235438Y56164D01*
X234024Y62528D02*
X235438Y63942D01*
X277944Y48555D02*
X276270Y46880D01*
X277944Y54898D02*
X276270Y56573D01*
X284288Y48555D02*
X285963Y46880D01*
X284288Y54898D02*
X285963Y56573D01*
X285664Y196906D02*
X287516Y198758D01*
X320600Y150215D02*
X319142Y151673D01*
X320600Y154537D02*
X319142Y153079D01*
X338045Y201758D02*
Y203758D01*
X344455Y49030D02*
X342455D01*
X344455Y74030D02*
X342455D01*
X347455Y46030D02*
Y44030D01*
Y52030D02*
Y54030D01*
Y71030D02*
Y69030D01*
Y77030D02*
Y79030D01*
X350455Y74030D02*
X352455D01*
X356278Y150215D02*
X357736Y151673D01*
X356278Y154537D02*
X357736Y153079D01*
D02*
D70*
X230683Y211608D02*
X278419D01*
X282140Y207888D01*
Y193382D01*
X282017Y193259D01*
X231549Y60053D02*
Y66746D01*
X236077Y71274D01*
X277612D01*
X281746Y67140D01*
Y52356D01*
X281116Y51726D01*
X282017Y193259D02*
Y195561D01*
X285683Y199226D01*
X310486D01*
X313242Y196470D01*
Y150407D01*
X315998Y147652D01*
X323163D01*
X323439Y147376D01*
X347455Y74030D02*
X347888D01*
Y86628D01*
X356943Y95683D01*
X388833D01*
X394148Y100998D01*
Y136234D01*
X353439Y147376D02*
X364502D01*
X369738Y142140D01*
Y134659D01*
X372888Y131510D01*
X390014D01*
X394148Y135644D01*
Y136234D01*
X392848Y52219D03*
Y72219D03*
X394148Y136234D02*
Y171274D01*
X390604Y174817D01*
X381904D01*
D02*
D71*
X45919Y175604D02*
X49069Y178754D01*
X56100D01*
X56267Y178587D01*
X62061Y201589D02*
Y208281D01*
X67179Y213400D01*
X100250D01*
X104187Y209463D01*
X62061Y201589D02*
Y211431D01*
X59305Y214187D01*
X42770D01*
X38439Y209856D01*
Y177573D01*
X41589Y174423D01*
X44738D01*
X45919Y175604D01*
X104187Y209463D02*
X104581Y209069D01*
Y201195D01*
X111746Y61943D02*
X102100D01*
X97494Y66549D01*
Y92927D01*
X93951Y96470D01*
X54581D01*
X45919Y105132D01*
Y175604D01*
X200683Y211608D02*
X126844D01*
X125053Y213400D01*
X109305D01*
X105368Y209463D01*
X104187D01*
X221549Y37809D02*
X114423D01*
X110486Y41746D01*
Y60683D01*
X111746Y61943D01*
X221549Y60053D02*
Y37809D01*
X282017Y183260D02*
Y171545D01*
X278596Y168124D01*
X275447D01*
X272691Y165368D01*
X259699D01*
X256549Y162219D01*
Y154344D01*
X253006Y150801D01*
X234502D01*
X230171Y155132D01*
Y190171D01*
X225841Y194502D01*
X188833D01*
X185683Y191352D01*
Y179171D01*
X186267Y178587D01*
X327455Y49030D02*
X334305D01*
X336077Y50801D01*
Y99226D01*
X334502Y100801D01*
X327455Y49030D02*
Y40998D01*
X324266Y37809D01*
X221549D01*
X334502Y100801D02*
X326589D01*
X323439Y103951D01*
Y117376D01*
X353439D02*
Y106746D01*
X350250Y103557D01*
X349856D01*
X347100Y100801D01*
X334502D01*
D02*
D20*
X56549Y158281D02*
X59699D01*
X63636Y154344D01*
Y134266D01*
X67573Y130329D01*
X92376D01*
X66267Y118587D02*
Y107225D01*
X68360Y105132D01*
X103793D01*
X106156Y102770D01*
Y83872D01*
X108518Y81510D01*
X129778D01*
X131746Y79541D01*
Y71943D01*
X77809Y201589D02*
Y192140D01*
X76234Y190565D01*
X53400D01*
X50644Y187809D01*
X48281D01*
X46707Y186234D01*
X121746Y61943D02*
Y47848D01*
X125880Y43715D01*
X209108D01*
X211549Y46156D01*
Y60053D01*
X126267Y178587D02*
Y188236D01*
X128203Y190171D01*
X169935D01*
X172297Y192533D01*
Y199226D01*
X174659Y201589D01*
X260486D01*
X262061Y200014D01*
Y193303D01*
X262017Y193259D01*
X131746Y61943D02*
Y51982D01*
X134502Y49226D01*
X193557D01*
X196707Y52376D01*
Y118148D01*
X196267Y118587D01*
X136267Y178587D02*
Y173445D01*
X137652Y172061D01*
X140407D01*
X142770Y169699D01*
X152219D01*
X156943Y164974D01*
Y160644D01*
X141746Y61943D02*
Y56943D01*
X145132Y53557D01*
X182927D01*
X188045Y58675D01*
Y109856D01*
X186267Y111634D01*
Y118587D01*
X151746Y61943D02*
X178321D01*
X181352Y64974D01*
Y107100D01*
X176267Y112185D01*
Y118587D01*
X151746Y71943D02*
Y77888D01*
X151825Y77967D01*
Y101982D01*
X143951Y109856D01*
X130171D01*
X126267Y113760D01*
Y118587D01*
X176628Y129935D02*
X145919D01*
X196267Y178587D02*
Y183826D01*
X200644Y188203D01*
X219708D01*
X223478Y184433D01*
Y129541D01*
X207337Y179148D02*
Y156313D01*
X202612Y151589D01*
X143557D01*
X139620Y147652D01*
X75053D01*
X72297Y144896D01*
Y137809D01*
X211549Y60053D02*
Y106589D01*
X215014Y110053D01*
X258321D01*
X258518Y110250D01*
X215998Y179148D02*
Y129541D01*
X238439Y159856D02*
X247100D01*
X249856Y162612D01*
Y170880D01*
X251825Y172848D01*
X269935D01*
X271904Y174817D01*
Y183146D01*
X272017Y183260D01*
X252017Y193259D02*
X240740D01*
X237652Y190171D01*
Y170093D01*
X280959Y160644D02*
Y159069D01*
X277022Y155132D01*
Y140565D01*
X281352Y136234D01*
X302219Y187022D02*
Y175998D01*
X300250Y174030D01*
X290407D01*
X287652Y171274D01*
Y144108D01*
X302219Y207888D02*
Y208281D01*
X305368Y211431D01*
X358911D01*
X363242Y207100D01*
Y180329D01*
X360486Y177573D01*
X353636D01*
X353439Y177376D01*
X312848Y102770D02*
X274266D01*
X271904Y105132D01*
Y116943D01*
X268754Y120093D01*
X232927D01*
X228990Y116156D01*
X207337D01*
X204187Y119305D01*
Y123636D01*
X201431Y126392D01*
Y136628D01*
X198281Y139778D01*
X151037D01*
X147888Y136628D01*
X108518D01*
X106156Y134266D01*
Y118699D01*
X106267Y118587D01*
X323439Y127376D02*
X233124D01*
X227809Y122061D01*
X212455D01*
X208911Y125604D01*
Y140171D01*
X203006Y146077D01*
X150250D01*
X147100Y142927D01*
X104581D01*
X100644Y138990D01*
Y127573D01*
X97494Y124423D01*
Y119814D01*
X96267Y118587D01*
X353439Y127376D02*
X359502D01*
X362455Y124423D01*
Y107100D01*
X362848Y106707D01*
X363242D01*
X353439Y137376D02*
Y136037D01*
X358518D01*
X367770Y126785D01*
Y123439D01*
X369974Y121234D01*
X375801D01*
X375841Y121274D01*
X382199D01*
X382474Y120998D01*
X353439Y167376D02*
X363203D01*
X366392Y164187D01*
Y155132D01*
X369935Y151589D01*
X378596D01*
X382533Y147258D01*
Y141057D01*
X382474Y140998D01*
D02*
D21*
X46707Y186234D03*
X56549Y158281D03*
X72297Y137809D03*
X92376Y130329D03*
X145919Y129935D03*
X156943Y160644D03*
X176628Y129935D03*
X207337Y179148D03*
X215998Y129541D03*
Y179148D03*
X223478Y129541D03*
X237652Y170093D03*
X238439Y159856D03*
X258518Y110250D03*
X280959Y160644D03*
X281352Y136234D03*
X287652Y144108D03*
X302219Y187022D03*
Y207888D03*
X312848Y102770D03*
X363242Y106707D03*
D02*
D22*
X364620Y43321D03*
Y63006D03*
Y82691D03*
D02*
D23*
X338045Y155014D03*
D02*
D24*
X130959Y94896D03*
Y159069D03*
X299069Y162612D03*
X299463Y70880D03*
D02*
D25*
X338400Y151785D03*
D02*
D26*
X323439Y117376D03*
Y127376D03*
Y137376D03*
Y147376D03*
Y157376D03*
Y167376D03*
Y177376D03*
Y187376D03*
X353439Y117376D03*
Y127376D03*
Y137376D03*
Y147376D03*
Y157376D03*
Y167376D03*
Y177376D03*
Y187376D03*
D02*
D27*
X111746Y61943D03*
Y71943D03*
X121746Y61943D03*
Y71943D03*
X131746Y61943D03*
Y71943D03*
X141746Y61943D03*
Y71943D03*
X151746Y61943D03*
Y71943D03*
X231549Y60053D03*
X282017Y183260D03*
D02*
D28*
X261116Y51726D03*
X281116D03*
D02*
D29*
X56267Y118587D03*
D02*
D72*
Y178587D03*
X66267Y118587D03*
Y178587D03*
X76267Y118587D03*
Y178587D03*
X86267Y118587D03*
Y178587D03*
X96267Y118587D03*
Y178587D03*
X106267Y118587D03*
Y178587D03*
X116267Y118587D03*
Y178587D03*
X126267Y118587D03*
Y178587D03*
X136267Y118587D03*
Y178587D03*
X146267Y118587D03*
Y178587D03*
X156267Y118587D03*
Y178587D03*
X166267Y118587D03*
Y178587D03*
X176267Y118587D03*
Y178587D03*
X186267Y118587D03*
Y178587D03*
X196267Y118587D03*
Y178587D03*
X252017Y183260D03*
Y193259D03*
X262017Y183260D03*
Y193259D03*
X272017Y183260D03*
Y193259D03*
D02*
D73*
X381904Y164817D03*
Y174817D03*
Y184817D03*
D02*
D74*
X200683Y211608D03*
X210683D03*
X220683D03*
X230683D03*
X327455Y49030D03*
Y74030D03*
X347455Y49030D03*
Y74030D03*
D02*
D75*
X50506Y54581D03*
Y74581D03*
X382474Y120998D03*
Y140998D03*
D02*
D76*
X282017Y193259D03*
D02*
D77*
X382848Y52219D03*
Y62219D03*
Y72219D03*
D02*
D78*
X54187Y201589D03*
X96707Y201195D03*
D02*
D79*
X62061Y201589D03*
X69935D03*
X77809D03*
X104581Y201195D03*
X112455D03*
X120329D03*
D02*
D80*
X211549Y60053D03*
X221549D03*
D02*
D99*
X323439Y147376D02*
X353439D01*
X323439Y157376D02*
X353439D01*
X0Y0D02*
M02*
